<?xml version="1.0" encoding="utf-8"?>
<!-- Generator: Adobe Illustrator 16.0.0, SVG Export Plug-In . SVG Version: 6.00 Build 0)  -->
<!DOCTYPE svg PUBLIC "-//W3C//DTD SVG 1.1//EN" "http://www.w3.org/Graphics/SVG/1.1/DTD/svg11.dtd">
<svg version="1.1" id="Layer_1" xmlns="http://www.w3.org/2000/svg" xmlns:xlink="http://www.w3.org/1999/xlink" x="0px" y="0px"
	 width="50.046px" height="30.411px" viewBox="0 0 50.046 30.411" enable-background="new 0 0 50.046 30.411" xml:space="preserve">
<g>
	<g>
		<path fill="#FFFFFF" d="M25.023,30.411L0.84,13.204c-0.9-0.64-1.11-1.889-0.47-2.789c0.64-0.9,1.888-1.111,2.789-0.47
			l21.864,15.557L46.886,9.945c0.898-0.641,2.148-0.431,2.789,0.47c0.641,0.9,0.43,2.149-0.47,2.789L25.023,30.411z"/>
	</g>
	<g>
		<path fill="#FFFFFF" d="M25.023,20.837L0.84,3.63c-0.9-0.64-1.11-1.889-0.47-2.789c0.64-0.9,1.888-1.111,2.789-0.47l21.864,15.557
			L46.886,0.371c0.898-0.641,2.148-0.431,2.789,0.47c0.641,0.9,0.43,2.149-0.47,2.789L25.023,20.837z"/>
	</g>
</g>
</svg>
