<?xml version="1.0" encoding="utf-8"?>
<!-- Generator: Adobe Illustrator 16.0.0, SVG Export Plug-In . SVG Version: 6.00 Build 0)  -->
<!DOCTYPE svg PUBLIC "-//W3C//DTD SVG 1.1//EN" "http://www.w3.org/Graphics/SVG/1.1/DTD/svg11.dtd">
<svg version="1.1" id="Layer_1" xmlns="http://www.w3.org/2000/svg" xmlns:xlink="http://www.w3.org/1999/xlink" x="0px" y="0px"
	 width="16.482px" height="16.464px" viewBox="0 0 16.482 16.464" enable-background="new 0 0 16.482 16.464" xml:space="preserve">
<g>
	<g>
		<path fill-rule="evenodd" clip-rule="evenodd" fill="#58595B" d="M16.469,3.329c-0.01-1.211-0.879-2.072-2.117-2.108h-0.367V0
			h-1.643v1.193H4.133V0.01h-1.65v1.211H2.07c-1.193,0.063-2.063,0.95-2.063,2.108c-0.009,3.67-0.009,7.339,0,10.999
			c0,1.229,0.889,2.117,2.1,2.117c2.045,0.01,4.091,0.019,6.137,0.019c2.045,0,4.09-0.009,6.137-0.019
			c1.184,0,2.08-0.897,2.09-2.081C16.487,10.578,16.487,6.864,16.469,3.329z M14.8,6.747c0.009,2.485,0.009,4.971,0,7.446
			c0,0.476-0.116,0.593-0.592,0.593H2.258c-0.484,0-0.574-0.161-0.574-0.468C1.675,12.13,1.675,9.95,1.675,7.761l0.009-1.157H14.8
			V6.747z M14.809,4.89H1.684V4.549C1.675,4.109,1.675,3.652,1.693,3.212c0.019-0.26,0.251-0.313,0.396-0.322h0.376l0.009,1.202
			h1.66V2.916h8.191v1.167h1.678V2.916c0.116-0.018,0.215-0.026,0.305-0.026c0.277,0,0.502,0.054,0.502,0.789V4.89z"/>
		<g>
			<path fill-rule="evenodd" clip-rule="evenodd" fill="#58595B" d="M8.907,8.892v3.606h3.615V8.892H8.907z M11.4,11.341h-1.372
				V9.968H11.4V11.341z"/>
		</g>
	</g>
</g>
</svg>
