<?xml version="1.0" encoding="utf-8"?>
<!-- Generator: Adobe Illustrator 16.0.0, SVG Export Plug-In . SVG Version: 6.00 Build 0)  -->
<!DOCTYPE svg PUBLIC "-//W3C//DTD SVG 1.1//EN" "http://www.w3.org/Graphics/SVG/1.1/DTD/svg11.dtd">
<svg version="1.1" id="Layer_1" xmlns="http://www.w3.org/2000/svg" xmlns:xlink="http://www.w3.org/1999/xlink" x="0px" y="0px"
	 width="16.802px" height="16.51px" viewBox="0 0 16.802 16.51" enable-background="new 0 0 16.802 16.51" xml:space="preserve">
<path fill-rule="evenodd" clip-rule="evenodd" fill="#58595B" d="M16.802,16.51c-5.55,0-11.11,0-16.661,0
	c-0.486-1.95,0.303-3.331,2.179-3.899c0.999-0.302,2.056-0.505,2.974-0.974c1.426-0.727,1.596-1.544,0.627-2.783
	C4.467,6.996,4.386,4.91,4.8,2.758C5.13,1.04,6.673-0.03,8.525,0c1.829,0.029,3.342,1.179,3.615,2.903
	c0.337,2.123,0.252,4.174-1.188,5.994c-0.938,1.186-0.752,2.016,0.608,2.715c0.854,0.44,1.831,0.657,2.771,0.911
	C16.367,13.072,17.166,14.31,16.802,16.51z"/>
</svg>
