<?xml version="1.0" encoding="utf-8"?>
<!-- Generator: Adobe Illustrator 16.0.0, SVG Export Plug-In . SVG Version: 6.00 Build 0)  -->
<!DOCTYPE svg PUBLIC "-//W3C//DTD SVG 1.1//EN" "http://www.w3.org/Graphics/SVG/1.1/DTD/svg11.dtd">
<svg version="1.1" id="Layer_1" xmlns="http://www.w3.org/2000/svg" xmlns:xlink="http://www.w3.org/1999/xlink" x="0px" y="0px"
	 width="22.423px" height="15.096px" viewBox="0 0 22.423 15.096" enable-background="new 0 0 22.423 15.096" xml:space="preserve">
<g>
	<g>
		<path fill-rule="evenodd" clip-rule="evenodd" fill="#58595B" d="M11.212,8.063c0.57,0,1.141-0.02,1.709,0.005
			c1.653,0.067,3.104,1.403,3.324,3.046c0.031,0.229,0.043,0.463,0.045,0.694c0.004,0.73-0.002,1.459,0.004,2.189
			c0,0.121-0.031,0.183-0.15,0.229c-1.123,0.431-2.284,0.684-3.479,0.797c-1.615,0.153-3.216,0.069-4.793-0.313
			c-0.552-0.134-1.086-0.335-1.629-0.503c-0.086-0.025-0.113-0.069-0.113-0.155c0.01-0.912-0.017-1.826,0.029-2.735
			c0.042-0.839,0.404-1.564,0.992-2.166c0.714-0.731,1.59-1.092,2.61-1.099c0.483-0.003,0.967-0.001,1.45-0.001
			C11.212,8.057,11.212,8.06,11.212,8.063z"/>
		<path fill-rule="evenodd" clip-rule="evenodd" fill="#58595B" d="M8.495,7.326C7.943,7.49,7.438,7.736,6.991,8.092
			c-1.134,0.904-1.725,2.083-1.758,3.534c-0.009,0.378-0.002,0.756-0.002,1.132c0,0.055,0,0.109,0,0.17
			c-0.238,0-0.465,0.007-0.691-0.001c-0.917-0.03-1.828-0.126-2.718-0.352c-0.567-0.143-1.122-0.341-1.684-0.509
			c-0.103-0.031-0.14-0.082-0.138-0.195c0.01-0.885-0.02-1.77,0.022-2.652c0.08-1.665,1.469-3.104,3.128-3.288
			c0.113-0.014,0.227-0.027,0.34-0.027C4.554,5.901,5.616,5.889,6.677,5.91c0.342,0.007,0.68,0.111,1.019,0.176
			c0.042,0.01,0.093,0.045,0.113,0.082c0.103,0.198,0.187,0.407,0.298,0.599C8.22,6.957,8.359,7.132,8.495,7.326z"/>
		<path fill-rule="evenodd" clip-rule="evenodd" fill="#58595B" d="M13.919,7.32c0.083-0.107,0.173-0.201,0.236-0.309
			c0.151-0.259,0.287-0.527,0.438-0.787c0.034-0.059,0.094-0.123,0.156-0.145c0.36-0.123,0.732-0.18,1.115-0.18
			c0.984,0.002,1.97-0.004,2.954,0.001c2.018,0.011,3.611,1.626,3.603,3.644c-0.004,0.775-0.004,1.551,0.002,2.326
			c0.002,0.111-0.039,0.157-0.137,0.195c-1.191,0.458-2.424,0.727-3.697,0.813c-0.412,0.028-0.826,0.039-1.24,0.059
			c-0.045,0.001-0.09,0-0.149,0c-0.003-0.063-0.007-0.117-0.007-0.169c-0.004-0.447,0.012-0.895-0.013-1.34
			c-0.101-1.89-1.339-3.489-3.137-4.069C14.005,7.348,13.966,7.335,13.919,7.32z"/>
		<path fill-rule="evenodd" clip-rule="evenodd" fill="#58595B" d="M17.334,5.467c-1.513-0.002-2.731-1.231-2.728-2.749
			C14.612,1.223,15.842,0,17.341,0c1.515,0,2.74,1.236,2.733,2.758C20.067,4.254,18.837,5.471,17.334,5.467z"/>
		<path fill-rule="evenodd" clip-rule="evenodd" fill="#58595B" d="M5.083,5.467C3.575,5.466,2.349,4.244,2.349,2.738
			c0-1.513,1.23-2.742,2.74-2.738c1.504,0.004,2.727,1.23,2.727,2.736C7.816,4.242,6.589,5.468,5.083,5.467z"/>
		<path fill-rule="evenodd" clip-rule="evenodd" fill="#58595B" d="M11.208,2.157c1.492-0.003,2.684,1.185,2.733,2.629
			c0.054,1.555-1.167,2.828-2.733,2.838c-1.504,0.01-2.732-1.234-2.729-2.75C8.481,3.379,9.706,2.158,11.208,2.157z"/>
	</g>
</g>
</svg>
