<?xml version="1.0" encoding="utf-8"?>
<!-- Generator: Adobe Illustrator 16.0.0, SVG Export Plug-In . SVG Version: 6.00 Build 0)  -->
<!DOCTYPE svg PUBLIC "-//W3C//DTD SVG 1.1//EN" "http://www.w3.org/Graphics/SVG/1.1/DTD/svg11.dtd">
<svg version="1.1" id="Layer_1" xmlns="http://www.w3.org/2000/svg" xmlns:xlink="http://www.w3.org/1999/xlink" x="0px" y="0px"
	 width="20.428px" height="18.082px" viewBox="0 0 20.428 18.082" enable-background="new 0 0 20.428 18.082" xml:space="preserve">
<g>
	<g>
		<polygon fill-rule="evenodd" clip-rule="evenodd" fill="#58595B" points="17.968,6.132 17.968,2.102 16.031,2.102 16.031,4.379 		
			"/>
		<path fill-rule="evenodd" clip-rule="evenodd" fill="#58595B" d="M0,9.087c0.947-0.815,1.902-1.625,2.841-2.446
			C5.35,4.438,7.852,2.228,10.377,0c3.358,3.037,6.704,6.063,10.051,9.087c0,0.029,0,0.06,0,0.089
			c-0.758,0.596-1.525,0.533-2.342-0.197c-2.396-2.148-4.791-4.3-7.186-6.45c-0.168-0.147-0.338-0.294-0.521-0.455
			C8.904,3.32,7.452,4.548,6,5.776C4.709,6.868,3.416,7.962,2.123,9.054C2.02,9.142,1.914,9.229,1.803,9.306
			C1.102,9.799,0.604,9.761,0,9.176C0,9.146,0,9.116,0,9.087z"/>
		<path fill-rule="evenodd" clip-rule="evenodd" fill="#58595B" d="M17.072,9.417c-1.619-1.428-3.227-2.875-4.846-4.313
			c-0.629-0.565-1.268-1.118-1.885-1.661c-0.064,0.031-0.096,0.031-0.117,0.053C7.816,5.52,5.398,7.532,3.002,9.566
			C2.874,9.673,2.811,9.896,2.8,10.067c-0.011,2.471,0,4.941,0,7.402c0,0.543,0.063,0.606,0.597,0.606c1.459,0.012,2.908,0,4.355,0
			h8.831c0.692,0,0.841-0.148,0.841-0.862c0-2.344-0.01-4.687,0.012-7.029C17.436,9.844,17.318,9.63,17.072,9.417z M13.92,12.134
			c-0.149,0.127-0.287,0.267-0.416,0.415c-0.105,0.106-0.191,0.106-0.287,0c-0.298-0.309-0.596-0.607-0.873-0.895
			c-0.469,0.468-0.916,0.915-1.396,1.395c0.181,0.182,0.404,0.395,0.618,0.607c0.469,0.458,0.938,0.938,1.405,1.396
			c0.14,0.128,0.14,0.224,0,0.341c-0.138,0.128-0.267,0.256-0.394,0.395c-0.106,0.128-0.202,0.105-0.309-0.011
			c-0.618-0.618-1.246-1.235-1.864-1.864c-0.063-0.054-0.097-0.138-0.159-0.224c-0.097,0.096-0.16,0.139-0.203,0.191
			c-0.629,0.629-1.257,1.246-1.875,1.885c-0.139,0.128-0.234,0.15-0.361,0c-0.107-0.127-0.234-0.233-0.342-0.352
			c-0.191-0.181-0.191-0.191-0.01-0.383c0.628-0.617,1.246-1.235,1.863-1.854c0.053-0.053,0.117-0.096,0.16-0.138
			c-0.469-0.479-0.916-0.927-1.385-1.396c-0.287,0.277-0.586,0.564-0.863,0.862c-0.127,0.149-0.234,0.16-0.361,0.011
			c-0.117-0.148-0.277-0.267-0.395-0.404c-0.043-0.063-0.074-0.182-0.043-0.245c0.191-0.458,0.395-0.905,0.598-1.353
			c0.021-0.063,0.074-0.128,0.127-0.182C7.508,9.981,7.869,9.62,8.221,9.258c0.129-0.128,0.214-0.139,0.331,0
			c0.267,0.276,0.544,0.543,0.819,0.81c0.117,0.117,0.117,0.202,0,0.309c-0.191,0.16-0.361,0.341-0.543,0.511
			c0.479,0.459,0.927,0.906,1.354,1.331c0.436-0.436,0.883-0.883,1.374-1.373c-0.14-0.128-0.319-0.298-0.501-0.458
			c-0.128-0.106-0.139-0.202-0.01-0.319c0.275-0.267,0.553-0.554,0.83-0.831c0.096-0.106,0.181-0.106,0.287,0
			c0.373,0.384,0.746,0.756,1.129,1.14c0.043,0.043,0.075,0.096,0.107,0.16c0.191,0.426,0.383,0.862,0.575,1.289
			C14.026,11.952,14.026,12.037,13.92,12.134z"/>
	</g>
</g>
</svg>
