<?xml version="1.0" encoding="utf-8"?>
<!-- Generator: Adobe Illustrator 16.0.0, SVG Export Plug-In . SVG Version: 6.00 Build 0)  -->
<!DOCTYPE svg PUBLIC "-//W3C//DTD SVG 1.1//EN" "http://www.w3.org/Graphics/SVG/1.1/DTD/svg11.dtd">
<svg version="1.1" id="Layer_1" xmlns="http://www.w3.org/2000/svg" xmlns:xlink="http://www.w3.org/1999/xlink" x="0px" y="0px"
	 width="166.001px" height="28.821px" viewBox="0 0 166.001 28.821" enable-background="new 0 0 166.001 28.821"
	 xml:space="preserve">
<g>
	<g>
		<path fill-rule="evenodd" clip-rule="evenodd" fill="#607DB7" d="M166.001,26.231c0,1.425-1.166,2.59-2.59,2.59H2.59
			c-1.424,0-2.59-1.165-2.59-2.59V2.59C0,1.166,1.166,0,2.59,0h160.821c1.424,0,2.59,1.166,2.59,2.59V26.231z"/>
	</g>
	<g>
		<g>
			<path fill="#3A559F" d="M20.75,8.811v11.201c0,0.426-0.35,0.776-0.777,0.776h-11.2c-0.427,0-0.777-0.351-0.777-0.776V8.811
				c0-0.428,0.35-0.777,0.777-0.777h11.2C20.4,8.033,20.75,8.383,20.75,8.811z"/>
		</g>
		<g>
			<path fill-rule="evenodd" clip-rule="evenodd" fill="#FFFFFF" d="M16.895,12.541c-0.008,0.357,0.008,0.717-0.005,1.074
				c-0.007,0.203,0.07,0.26,0.264,0.257c0.526-0.011,1.052-0.005,1.643-0.005c-0.047,0.365-0.088,0.696-0.13,1.025
				c-0.044,0.334-0.085,0.668-0.135,1.033h-1.637v4.862h-2.098c0.008-0.974,0.013-1.942,0.018-2.917
				c0.002-0.527-0.01-1.057,0.005-1.588c0.007-0.262-0.057-0.375-0.345-0.354c-0.357,0.026-0.717,0-1.075,0.008
				c-0.173,0.005-0.259-0.039-0.256-0.233c0.01-0.527,0.008-1.059,0-1.588c-0.002-0.182,0.065-0.251,0.249-0.248
				c0.461,0.008,0.922,0.002,1.422,0.002c0-0.295-0.005-0.564,0.002-0.834c0.01-0.436-0.026-0.878,0.06-1.298
				c0.223-1.057,1.114-1.756,2.194-1.779c0.5-0.013,1,0.003,1.502-0.005c0.189-0.006,0.27,0.052,0.265,0.256
				c-0.013,0.461-0.011,0.925,0,1.387c0.002,0.188-0.07,0.248-0.249,0.246c-0.332-0.011-0.66-0.006-0.992-0.003
				C17.141,11.844,16.903,12.082,16.895,12.541z"/>
		</g>
	</g>
	<g>
		<path fill="#FFFFFF" d="M27.55,15.275c0-1.639,1.259-2.813,2.953-2.813c0.94,0,1.725,0.342,2.238,0.964l-0.808,0.746
			c-0.365-0.419-0.824-0.638-1.367-0.638c-1.018,0-1.741,0.715-1.741,1.74c0,1.026,0.723,1.741,1.741,1.741
			c0.543,0,1.002-0.218,1.367-0.645l0.808,0.745c-0.513,0.63-1.297,0.973-2.246,0.973C28.809,18.09,27.55,16.916,27.55,15.275z"/>
		<path fill="#FFFFFF" d="M33.907,15.275c0-1.615,1.259-2.813,2.976-2.813c1.709,0,2.977,1.189,2.977,2.813
			c0,1.625-1.267,2.814-2.977,2.814C35.166,18.09,33.907,16.893,33.907,15.275z M38.585,15.275c0-1.033-0.731-1.74-1.702-1.74
			s-1.702,0.707-1.702,1.74c0,1.034,0.73,1.741,1.702,1.741S38.585,16.31,38.585,15.275z"/>
		<path fill="#FFFFFF" d="M46.573,12.557v5.439H45.54l-2.712-3.303v3.303h-1.243v-5.439h1.041l2.704,3.303v-3.303H46.573z"/>
		<path fill="#FFFFFF" d="M53.629,12.557v5.439h-1.033l-2.712-3.303v3.303H48.64v-5.439h1.042l2.704,3.303v-3.303H53.629z"/>
		<path fill="#FFFFFF" d="M59.908,16.986v1.01h-4.211v-5.439h4.111v1.01h-2.86v1.182h2.525v0.979h-2.525v1.26H59.908z"/>
		<path fill="#FFFFFF" d="M61.33,15.275c0-1.639,1.259-2.813,2.953-2.813c0.94,0,1.725,0.342,2.238,0.964l-0.808,0.746
			c-0.365-0.419-0.824-0.638-1.367-0.638c-1.018,0-1.741,0.715-1.741,1.74c0,1.026,0.723,1.741,1.741,1.741
			c0.543,0,1.002-0.218,1.367-0.645l0.808,0.745c-0.513,0.63-1.297,0.973-2.246,0.973C62.589,18.09,61.33,16.916,61.33,15.275z"/>
		<path fill="#FFFFFF" d="M69.217,13.582h-1.74v-1.025h4.74v1.025h-1.741v4.414h-1.259V13.582z"/>
		<path fill="#FFFFFF" d="M84.868,12.557l-1.779,5.439h-1.353l-1.196-3.684l-1.236,3.684h-1.344l-1.787-5.439h1.306l1.228,3.822
			l1.282-3.822h1.166l1.243,3.854l1.267-3.854H84.868z"/>
		<path fill="#FFFFFF" d="M86.345,12.557h1.258v5.439h-1.258V12.557z"/>
		<path fill="#FFFFFF" d="M90.797,13.582h-1.741v-1.025h4.74v1.025h-1.74v4.414h-1.259V13.582z"/>
		<path fill="#FFFFFF" d="M100.238,12.557v5.439h-1.259v-2.23h-2.471v2.23h-1.26v-5.439h1.26v2.145h2.471v-2.145H100.238z"/>
		<path fill="#FFFFFF" d="M106.54,13.566v1.438h2.518v1.011h-2.518v1.981h-1.258v-5.439h4.109v1.01H106.54z"/>
		<path fill="#FFFFFF" d="M114.382,16.83h-2.526l-0.481,1.166h-1.29l2.425-5.439h1.243l2.433,5.439h-1.322L114.382,16.83z
			 M113.985,15.875l-0.863-2.083l-0.862,2.083H113.985z"/>
		<path fill="#FFFFFF" d="M117.108,15.275c0-1.639,1.26-2.813,2.953-2.813c0.94,0,1.725,0.342,2.238,0.964l-0.809,0.746
			c-0.365-0.419-0.824-0.638-1.367-0.638c-1.018,0-1.74,0.715-1.74,1.74c0,1.026,0.723,1.741,1.74,1.741
			c0.543,0,1.002-0.218,1.367-0.645l0.809,0.745c-0.514,0.63-1.298,0.973-2.246,0.973C118.368,18.09,117.108,16.916,117.108,15.275z
			"/>
		<path fill="#FFFFFF" d="M128.136,16.986v1.01h-4.212v-5.439h4.11v1.01h-2.859v1.182h2.525v0.979h-2.525v1.26H128.136z"/>
		<path fill="#FFFFFF" d="M134.903,16.512c0,0.94-0.746,1.484-2.176,1.484h-2.813v-5.439h2.658c1.359,0,2.059,0.566,2.059,1.414
			c0,0.544-0.279,0.964-0.723,1.197C134.515,15.361,134.903,15.828,134.903,16.512z M131.166,13.505v1.282h1.251
			c0.614,0,0.948-0.219,0.948-0.646s-0.334-0.637-0.948-0.637H131.166z M133.638,16.379c0-0.457-0.35-0.676-1.003-0.676h-1.469
			v1.345h1.469C133.288,17.048,133.638,16.846,133.638,16.379z"/>
		<path fill="#FFFFFF" d="M136.295,15.275c0-1.615,1.259-2.813,2.976-2.813c1.71,0,2.977,1.189,2.977,2.813
			c0,1.625-1.267,2.814-2.977,2.814C137.554,18.09,136.295,16.893,136.295,15.275z M140.973,15.275c0-1.033-0.73-1.74-1.702-1.74
			c-0.971,0-1.701,0.707-1.701,1.74c0,1.034,0.73,1.741,1.701,1.741C140.242,17.017,140.973,16.31,140.973,15.275z"/>
		<path fill="#FFFFFF" d="M143.631,15.275c0-1.615,1.259-2.813,2.976-2.813c1.71,0,2.977,1.189,2.977,2.813
			c0,1.625-1.267,2.814-2.977,2.814C144.89,18.09,143.631,16.893,143.631,15.275z M148.309,15.275c0-1.033-0.73-1.74-1.702-1.74
			c-0.971,0-1.701,0.707-1.701,1.74c0,1.034,0.73,1.741,1.701,1.741C147.578,17.017,148.309,16.31,148.309,15.275z"/>
		<path fill="#FFFFFF" d="M153.29,15.859l-0.73,0.762v1.375h-1.252v-5.439h1.252v2.541l2.408-2.541h1.398l-2.253,2.424l2.386,3.016
			h-1.469L153.29,15.859z"/>
	</g>
</g>
</svg>
