<?xml version="1.0" encoding="utf-8"?>
<!-- Generator: Adobe Illustrator 16.0.0, SVG Export Plug-In . SVG Version: 6.00 Build 0)  -->
<!DOCTYPE svg PUBLIC "-//W3C//DTD SVG 1.1//EN" "http://www.w3.org/Graphics/SVG/1.1/DTD/svg11.dtd">
<svg version="1.1" id="Layer_1" xmlns="http://www.w3.org/2000/svg" xmlns:xlink="http://www.w3.org/1999/xlink" x="0px" y="0px"
	 width="107.959px" height="74.145px" viewBox="0 0 107.959 74.145" enable-background="new 0 0 107.959 74.145"
	 xml:space="preserve">
<g>
	<path fill-rule="evenodd" clip-rule="evenodd" fill="#FFFFFF" d="M102.259,27.259c0,13.462,0,26.821,0,40.241
		c-9.999,0-19.937,0-29.896,0c-0.049-0.095-0.144-0.195-0.142-0.292c0.082-2.977-0.595-2.466-2.734-2.492
		c-0.581-0.007-1.163-0.001-1.814-0.001c0-6.255,0-12.408,0-18.722c1.056,0,2.093,0,3.195,0c0-0.763,0-1.366,0-2.064
		c-1.853,0-3.649,0-5.546,0c0-5.605,0-11.119,0-16.67C77.645,27.259,89.958,27.259,102.259,27.259z M85.167,44.728
		c1.065,0,1.982,0,2.888,0c0-1.461,0-2.819,0-4.202c-0.996,0-1.914,0-2.888,0C85.167,41.96,85.167,43.314,85.167,44.728z
		 M85.18,48.569c0,1.489,0,2.843,0,4.251c0.995,0,1.914,0,2.86,0c0-1.448,0-2.83,0-4.251C87.063,48.569,86.176,48.569,85.18,48.569z
		 M81.253,44.77c0-1.516,0-2.908,0-4.261c-1.012,0-1.858,0-2.759,0c0,1.444,0,2.823,0,4.261C79.455,44.77,80.34,44.77,81.253,44.77z
		 M81.343,48.586c-1.041,0-1.925,0-2.844,0c0,1.454,0,2.832,0,4.209c0.996,0,1.902,0,2.844,0
		C81.343,51.359,81.343,50.012,81.343,48.586z M94.8,48.659c-1.04,0-1.967,0-2.825,0c0,1.49,0,2.833,0,4.164
		c0.988,0,1.871,0,2.825,0C94.8,51.41,94.8,50.06,94.8,48.659z M91.939,40.501c0,1.487,0,2.839,0,4.249c0.979,0,1.888,0,2.839,0
		c0-1.46,0-2.84,0-4.249C93.802,40.501,92.919,40.501,91.939,40.501z M71.713,37.256c1.065,0,1.985,0,2.874,0
		c0-1.449,0-2.805,0-4.122c-1.008,0-1.93,0-2.874,0C71.713,34.552,71.713,35.874,71.713,37.256z M81.321,37.308
		c0-1.428,0-2.806,0-4.178c-1.01,0-1.925,0-2.825,0c0,1.443,0,2.792,0,4.178C79.431,37.308,80.285,37.308,81.321,37.308z
		 M85.159,37.266c1.05,0,1.973,0,2.893,0c0-1.438,0-2.794,0-4.14c-0.999,0-1.92,0-2.893,0
		C85.159,34.536,85.159,35.857,85.159,37.266z M94.802,33.105c-0.986,0-1.901,0-2.831,0c0,1.447,0,2.824,0,4.179
		c0.99,0,1.877,0,2.831,0C94.802,35.871,94.802,34.52,94.802,33.105z M78.5,56.031c0,1.487,0,2.841,0,4.208c0.977,0,1.867,0,2.816,0
		c0-1.438,0-2.816,0-4.208C80.327,56.031,79.438,56.031,78.5,56.031z M88.066,56.057c-1.018,0-1.936,0-2.889,0
		c0,1.425,0,2.771,0,4.179c0.993,0,1.909,0,2.889,0C88.066,58.829,88.066,57.479,88.066,56.057z M91.974,56.037
		c0,1.453,0,2.831,0,4.19c0.991,0,1.88,0,2.828,0c0-1.426,0-2.78,0-4.19C93.845,56.037,92.955,56.037,91.974,56.037z"/>
	<path fill-rule="evenodd" clip-rule="evenodd" fill="#FFFFFF" d="M4.561,27.214c12.266,0,24.446,0,36.709,0
		c0,5.521,0,11.008,0,16.646c-1.736,0-3.481,0-5.304,0c0,0.752,0,1.355,0,2.082c0.971,0,1.901,0,2.927,0c0,6.272,0,12.425,0,18.773
		c-0.891,0-1.813-0.001-2.737,0.001c-1.558,0.004-1.742,0.191-1.775,1.771c-0.006,0.312-0.026,0.624-0.045,1.004
		c-9.926,0-19.818,0-29.774,0C4.561,54.072,4.561,40.711,4.561,27.214z M14.641,40.524c-1.048,0-1.968,0-2.937,0
		c0,1.438,0,2.795,0,4.204c1.013,0,1.962,0,2.937,0C14.641,43.296,14.641,41.965,14.641,40.524z M28.105,40.55
		c-1.001,0-1.97,0-2.934,0c0,1.458,0,2.808,0,4.174c1.018,0,1.961,0,2.934,0C28.105,43.298,28.105,41.975,28.105,40.55z
		 M14.63,48.623c-1.035,0-1.982,0-2.9,0c0,1.469,0,2.826,0,4.181c1.011,0,1.932,0,2.9,0C14.63,51.394,14.63,50.066,14.63,48.623z
		 M28.063,52.84c0-1.486,0-2.84,0-4.257c-0.997,0-1.92,0-2.875,0c0,1.457,0,2.841,0,4.257C26.17,52.84,27.063,52.84,28.063,52.84z
		 M14.606,37.313c0-1.466,0-2.811,0-4.175c-1.017,0-1.961,0-2.878,0c0,1.45,0,2.797,0,4.175
		C12.707,37.313,13.599,37.313,14.606,37.313z M25.142,37.287c1.027,0,1.946,0,2.893,0c0-1.435,0-2.808,0-4.163
		c-1.021,0-1.938,0-2.893,0C25.142,34.53,25.142,35.848,25.142,37.287z M11.718,56.019c0,1.478,0,2.828,0,4.21
		c0.996,0,1.915,0,2.859,0c0-1.447,0-2.823,0-4.21C13.584,56.019,12.691,56.019,11.718,56.019z M28.056,60.224
		c0-1.47,0-2.817,0-4.183c-1.001,0-1.922,0-2.894,0c0,1.411,0,2.759,0,4.183C26.143,60.224,27.061,60.224,28.056,60.224z
		 M18.482,40.507c0,1.442,0,2.821,0,4.217c0.992,0,1.897,0,2.804,0c0-1.458,0-2.809,0-4.217
		C20.32,40.507,19.44,40.507,18.482,40.507z M18.444,52.787c1.04,0,1.948,0,2.846,0c0-1.453,0-2.805,0-4.167
		c-0.991,0-1.897,0-2.846,0C18.444,50.049,18.444,51.372,18.444,52.787z M18.496,33.097c0,1.481,0,2.832,0,4.183
		c0.986,0,1.874,0,2.805,0c0-1.419,0-2.771,0-4.183C20.345,33.097,19.458,33.097,18.496,33.097z M34.816,33.115
		c-1.004,0-1.914,0-2.861,0c0,1.424,0,2.77,0,4.158c0.98,0,1.895,0,2.861,0C34.816,35.882,34.816,34.563,34.816,33.115z
		 M21.279,60.231c0-1.439,0-2.813,0-4.195c-0.979,0-1.862,0-2.785,0c0,1.433,0,2.806,0,4.195
		C19.474,60.231,20.354,60.231,21.279,60.231z"/>
	<path fill-rule="evenodd" clip-rule="evenodd" fill="#FFFFFF" d="M43.479,43.82c0-5.545,0-11.029,0-16.588c6.532,0,13.033,0,19.6,0
		c0,5.532,0,11.018,0,16.588C56.549,43.82,50.051,43.82,43.479,43.82z"/>
	<path fill-rule="evenodd" clip-rule="evenodd" fill="#FFFFFF" d="M60.895,70.387c-5.009,0-9.914,0-14.806,0
		c-0.064-0.075-0.161-0.134-0.161-0.192c0.049-4.32-0.072-8.653,0.253-12.953c0.117-1.561,1.049-3.235,2.046-4.52
		c2.666-3.438,7.535-3.39,10.368-0.09c1.408,1.641,2.216,3.577,2.271,5.701C60.968,62.298,60.895,66.267,60.895,70.387z"/>
	<path fill-rule="evenodd" clip-rule="evenodd" fill="#FFFFFF" d="M66.487,24.774H40.354c0.434-0.328,0.704-0.56,1.003-0.752
		c3.326-2.238,6.645-4.494,10.01-6.674c0.627-0.405,0.906-0.849,0.975-1.485c0.019-0.135,0.019-0.27,0.019-0.424
		c-0.01-0.627-0.01-1.331-0.019-2.093V0h11.716v5.873H54.51v10.174c0.28,0.752,0.849,1.331,1.745,1.88
		c3.164,1.909,6.173,4.06,9.248,6.114C65.773,24.225,66.034,24.437,66.487,24.774z"/>
	<path fill-rule="evenodd" clip-rule="evenodd" fill="#FFFFFF" d="M52.341,1.572v11.775C52.32,9.634,52.341,4.609,52.341,1.572z"/>
	<path fill-rule="evenodd" clip-rule="evenodd" fill="#FFFFFF" d="M43.914,64.651c-1.053,0-1.904,0-2.81,0
		c0-6.219,0-12.372,0-18.611c8.12,0,16.17,0,24.327,0c0,6.181,0,12.363,0,18.61c-0.786,0-1.559,0-2.523,0
		c0-0.99,0.056-1.999-0.013-2.998c-0.143-2.068-0.07-4.205-0.587-6.184c-1.196-4.581-4.925-7.394-9.255-7.265
		c-3.165,0.095-5.497,1.698-7.2,4.276c-1.358,2.059-1.967,4.347-1.942,6.813C43.928,61.054,43.914,62.816,43.914,64.651z"/>
	<path fill-rule="evenodd" clip-rule="evenodd" fill="#FFFFFF" d="M63.95,20.253c0.413,0,0.826,0,1.24,0
		c12.342,0,24.683,0.008,37.024-0.015c0.811-0.002,1.416,0.193,1.964,0.797c1.214,1.338,2.477,2.631,3.78,4.007
		c-0.246,0.025-0.559,0.087-0.871,0.087c-11.83,0.003-23.66,0.004-35.491-0.015c-0.446-0.001-0.963-0.093-1.326-0.328
		c-2.145-1.382-4.254-2.819-6.375-4.238C63.913,20.45,63.933,20.351,63.95,20.253z"/>
	<path fill-rule="evenodd" clip-rule="evenodd" fill="#FFFFFF" d="M42.927,20.545c-2.155,1.441-4.301,2.895-6.475,4.308
		c-0.302,0.196-0.735,0.264-1.109,0.264c-11.486,0.014-22.974,0.011-34.461,0.008c-0.193,0-0.387-0.028-0.882-0.066
		c1.049-1.04,2.039-1.855,2.823-2.835c1.266-1.578,2.784-2.028,4.801-2.011c11.329,0.099,22.66,0.046,33.99,0.046
		c0.416,0,0.833,0,1.25,0C42.885,20.354,42.906,20.45,42.927,20.545z"/>
	<path fill-rule="evenodd" clip-rule="evenodd" fill="#FFFFFF" d="M72.26,74.117c0-1.459,0-2.896,0-4.439c9.981,0,19.941,0,30.003,0
		c0,1.439,0,2.903,0,4.439C92.271,74.117,82.303,74.117,72.26,74.117z"/>
	<path fill-rule="evenodd" clip-rule="evenodd" fill="#FFFFFF" d="M34.315,69.662c0,1.501,0,2.937,0,4.449
		c-9.92,0-19.804,0-29.754,0c0-1.491,0-2.926,0-4.449C14.462,69.662,24.313,69.662,34.315,69.662z"/>
	<path fill-rule="evenodd" clip-rule="evenodd" fill="#FFFFFF" d="M43.52,66.799c0,2.485,0,4.864,0,7.315c-2.354,0-4.65,0-7.03,0
		c0-2.417,0-4.827,0-7.315C38.794,66.799,41.093,66.799,43.52,66.799z"/>
	<path fill-rule="evenodd" clip-rule="evenodd" fill="#FFFFFF" d="M70.107,74.145c-2.368,0-4.64,0-7.009,0c0-2.445,0-4.848,0-7.338
		c2.332,0,4.632,0,7.009,0C70.107,69.208,70.107,71.621,70.107,74.145z"/>
</g>
</svg>
