<?xml version="1.0" encoding="utf-8"?>
<!-- Generator: Adobe Illustrator 16.0.0, SVG Export Plug-In . SVG Version: 6.00 Build 0)  -->
<!DOCTYPE svg PUBLIC "-//W3C//DTD SVG 1.1//EN" "http://www.w3.org/Graphics/SVG/1.1/DTD/svg11.dtd">
<svg version="1.1" id="Layer_1" xmlns="http://www.w3.org/2000/svg" xmlns:xlink="http://www.w3.org/1999/xlink" x="0px" y="0px"
	 width="107.959px" height="74.145px" viewBox="0 0 107.959 74.145" enable-background="new 0 0 107.959 74.145"
	 xml:space="preserve">
<g>
	<g>
		<path fill="#FFFFFF" d="M87.039,4.756c-1.601,0.895-3.196,1.707-4.792,2.434c0.016,4.888-2.145,16.281-3.125,17.633
			c-0.94,1.306-10.336-9.533-12.979-12.628c-1.52,0.27-3.019,0.483-4.487,0.641c-1.519,4.833-6.605,14.675-7.891,15.666
			c-1.275,0.981-7.201-12.063-8.853-15.789c-1.128-0.137-2.215-0.289-3.252-0.462c-0.631-0.102-1.245-0.214-1.85-0.33
			c-2.552,3.831-11.434,12.328-13.064,12.871c-1.515,0.509-2.826-13.563-3.182-17.734c-1.55-0.666-2.435-1.128-2.54-1.184
			C20.526,5.614,20.339,5,20.599,4.501c0.259-0.498,0.873-0.686,1.371-0.426c0.082,0.04,8.176,4.242,20.088,6.184
			c10.95,1.784,27.471,1.972,43.985-7.276c0.493-0.274,1.113-0.097,1.388,0.391C87.699,3.861,87.526,4.481,87.039,4.756z"/>
	</g>
	<g>
		<g>
			<path fill="#FFFFFF" d="M75.956,44.895c-2.566,0.335-5.563,0.595-8.888,0.661c-0.01-0.015-0.015-0.025-0.02-0.041
				C68.969,45.434,72.536,45.245,75.956,44.895z"/>
		</g>
	</g>
	<g>
		<g>
			<path fill="#FFFFFF" d="M82.812,41.582c0.69-0.163,1.225-0.305,1.58-0.407L82.812,41.582z M75.428,42.897
				c0.025,0,0.051-0.005,0.076-0.005c0.021-0.005,0.04-0.005,0.062-0.01C75.52,42.888,75.474,42.893,75.428,42.897z"/>
		</g>
		<g>
			<path fill="#FFFFFF" d="M86.196,41.688c-0.168-0.534-0.743-0.834-1.275-0.666c-0.011,0.005-0.144,0.046-0.382,0.112l-0.056,0.015
				c-0.025,0.005-0.062,0.015-0.092,0.025c-0.355,0.102-0.89,0.244-1.58,0.407c-1.602,0.381-4.029,0.879-7.094,1.286
				c-0.051,0.005-0.102,0.01-0.152,0.015c-0.021,0.005-0.041,0.005-0.062,0.01c-0.025,0-0.051,0.005-0.076,0.005
				c-3.72,0.371-7.765,0.574-9.833,0.641h-0.02c-0.504,0.005-1.012,0-1.524-0.011c-0.239-0.005-0.479-0.01-0.717-0.015h-0.005
				c-0.32-0.01-0.641-0.021-0.966-0.036h-0.01c-1.469-0.056-3.014-0.162-4.625-0.325c-0.011,0-0.021-0.005-0.035-0.005
				c-4.432-0.457-9.34-1.372-14.447-3.028c-0.097-0.03-0.192-0.062-0.294-0.092c-0.325-0.112-0.651-0.224-0.981-0.335
				c-1.545-0.539-3.109-1.143-4.68-1.824c-4.151-1.804-8.354-4.152-12.465-7.181c-0.925-0.681-1.845-1.402-2.76-2.154
				c-0.432-0.355-1.077-0.295-1.433,0.137c-0.356,0.432-0.295,1.072,0.137,1.433c1.118,0.925,2.246,1.794,3.385,2.612
				c-0.991,4.746-0.986,17.109-0.086,18.979c0.218,0.463,0.681,0.737,1.234,0.737c2.373,0,11.58-7.384,15.813-10.885
				c0.716,0.249,1.433,0.488,2.14,0.711c0.544,5.051,3.917,16.322,5.274,17.821c0.244,0.27,0.579,0.422,0.955,0.422
				c0.687-0.005,1.718-0.005,7.506-7.881c2.21-3.018,4.294-6.068,5.005-7.12c0.717,0.031,1.413,0.051,2.094,0.062
				c0.265,0.005,0.523,0.01,0.782,0.005c1.662,4.182,9.29,14.858,11.165,15.885c0.188,0.102,0.396,0.158,0.609,0.158
				c0.864,0,1.845,0,4.863-9.732c1.092-3.532,2.063-7.099,2.429-8.476c0.955-0.239,1.504-0.411,1.591-0.437
				C86.063,42.796,86.363,42.227,86.196,41.688z M25.756,50.256c-0.473-2.627-0.498-11.942,0.208-16.287
				c3.456,2.328,6.962,4.208,10.428,5.722c0.858,0.437,1.666,0.829,2.398,1.138C33.525,45.118,27.718,49.433,25.756,50.256z
				 M49.741,58.218c-1.164-2.327-3.74-10.875-4.386-15.341c2.226,0.62,4.4,1.108,6.509,1.494c1.911,0.341,3.766,0.6,5.539,0.782
				c0.016,0.006,0.031,0.006,0.041,0.006c0.758,0.137,1.469,0.249,2.109,0.32C55.727,51.084,51.382,56.872,49.741,58.218z
				 M76.571,59.301c-1.977-1.931-7.729-9.935-9.503-13.746c-0.01-0.015-0.015-0.025-0.02-0.041c1.92-0.081,5.487-0.27,8.907-0.62
				c0.031-0.005,0.062-0.01,0.097-0.01c2.063-0.219,4.07-0.493,5.615-0.844C79.89,50.591,77.685,57.486,76.571,59.301z"/>
		</g>
	</g>
	<g>
		<g>
			<path fill="#FFFFFF" d="M41.971,39.691c0.33,0.112,0.656,0.224,0.981,0.335l0.102-0.086L41.971,39.691z"/>
		</g>
	</g>
	<g>
		<path fill="#FFFFFF" d="M39.028,28.349c-2.194,0-3.98-1.786-3.98-3.98s1.786-3.981,3.98-3.981c2.195,0,3.981,1.786,3.981,3.981
			S41.224,28.349,39.028,28.349z M39.028,22.421c-1.074,0-1.947,0.874-1.947,1.948c0,1.074,0.873,1.948,1.947,1.948
			c1.075,0,1.949-0.874,1.949-1.948C40.978,23.294,40.104,22.421,39.028,22.421z"/>
	</g>
	<g>
		<path fill="#FFFFFF" d="M72.464,39.919c-2.195,0-3.981-1.786-3.981-3.98c0-2.195,1.786-3.981,3.981-3.981
			c2.194,0,3.98,1.786,3.98,3.981C76.444,38.134,74.658,39.919,72.464,39.919z M72.464,33.991c-1.074,0-1.948,0.874-1.948,1.948
			c0,1.074,0.874,1.947,1.948,1.947s1.947-0.874,1.947-1.947C74.411,34.865,73.538,33.991,72.464,33.991z"/>
	</g>
	<g>
		<path fill="#FFFFFF" d="M67.049,71.292c-2.195,0-3.981-1.786-3.981-3.98c0-2.195,1.786-3.981,3.981-3.981
			c2.194,0,3.98,1.786,3.98,3.981C71.029,69.507,69.243,71.292,67.049,71.292z M67.049,65.364c-1.074,0-1.948,0.874-1.948,1.948
			c0,1.074,0.874,1.948,1.948,1.948c1.073,0,1.947-0.874,1.947-1.948C68.996,66.238,68.122,65.364,67.049,65.364z"/>
	</g>
	<g>
		<circle fill="#FFFFFF" cx="61.12" cy="37.677" r="1.473"/>
	</g>
	<g>
		<circle fill="#FFFFFF" cx="43.985" cy="29.773" r="1.472"/>
	</g>
	<g>
		<circle fill="#FFFFFF" cx="35.092" cy="53.148" r="1.472"/>
	</g>
	<g>
		<circle fill="#FFFFFF" cx="58.637" cy="60.94" r="1.473"/>
	</g>
	<g>
		<circle fill="#FFFFFF" cx="32.467" cy="60.94" r="1.473"/>
	</g>
	<g>
		<g>
			<path fill="#FFFFFF" d="M69.071,25.549c0,0.564-0.457,1.016-1.017,1.016h-1.987v1.987c0,0.564-0.457,1.016-1.016,1.016
				c-0.564,0-1.017-0.452-1.017-1.016v-1.987h-1.987c-0.564,0-1.016-0.452-1.016-1.016c0-0.559,0.451-1.016,1.016-1.016h1.987
				v-1.987c0-0.559,0.452-1.016,1.017-1.016c0.559,0,1.016,0.458,1.016,1.016v1.987h1.987C68.614,24.533,69.071,24.99,69.071,25.549
				z"/>
		</g>
	</g>
	<g>
		<g>
			<path fill="#FFFFFF" d="M44.104,58.641c0,0.563-0.457,1.016-1.017,1.016h-1.986v1.987c0,0.563-0.457,1.016-1.017,1.016
				c-0.563,0-1.017-0.453-1.017-1.016v-1.987h-1.986c-0.564,0-1.017-0.453-1.017-1.016c0-0.559,0.452-1.017,1.017-1.017h1.986
				v-1.987c0-0.559,0.453-1.016,1.017-1.016c0.56,0,1.017,0.457,1.017,1.016v1.987h1.986C43.646,57.624,44.104,58.082,44.104,58.641
				z"/>
		</g>
	</g>
</g>
</svg>
