<?xml version="1.0" encoding="utf-8"?>
<!-- Generator: Adobe Illustrator 16.0.0, SVG Export Plug-In . SVG Version: 6.00 Build 0)  -->
<!DOCTYPE svg PUBLIC "-//W3C//DTD SVG 1.1//EN" "http://www.w3.org/Graphics/SVG/1.1/DTD/svg11.dtd">
<svg version="1.1" id="Layer_1" xmlns="http://www.w3.org/2000/svg" xmlns:xlink="http://www.w3.org/1999/xlink" x="0px" y="0px"
	 width="62.685px" height="72.333px" viewBox="0 0 62.685 72.333" enable-background="new 0 0 62.685 72.333" xml:space="preserve">
<g>
	<path fill-rule="evenodd" clip-rule="evenodd" fill="#FFFFFF" d="M48.751,53.692c-0.515,0.471-1.148,0.39-1.763,0.39
		c-4.139,0-8.271-0.046-12.401,0.027c-1.464,0.027-2.079-0.362-2.079-1.961c0.063-17.02,0.054-34.031,0.063-51.051h16.577
		c0,16.667,0,33.335-0.019,50.002C49.131,51.975,49.384,52.906,48.751,53.692z"/>
	<path fill-rule="evenodd" clip-rule="evenodd" fill="#FFFFFF" d="M42.39,69.477c-0.966,0-1.933-0.028-2.898,0.006
		c-1.328,0.047-2.573,0.083-2.347-1.86c0.097-0.836-0.456-0.865-1.077-0.653c-0.13,0.044-0.274,0.066-0.389,0.137
		c-6.309,3.876-13.306,1.913-20.017,2.352c-1.263,0.083-1.313-0.641-0.927-1.619c0.678-1.719,2.076-2.5,3.724-2.992
		c2.11-0.632,4.237-1.183,6.238-2.172c2.913-1.44,5.295-3.472,7.167-6.091c0.628-0.879,1.311-1.27,2.397-1.257
		c4.001,0.048,8.007,0.068,12.007-0.008c1.388-0.027,1.95,0.582,2.294,1.814c0.672,2.4,0.585,4.756-0.084,7.128
		c-0.225,0.793-0.452,1.6-0.54,2.417c-0.296,2.794-0.273,2.796-3.064,2.798C44.045,69.477,43.218,69.477,42.39,69.477z"/>
	<path fill-rule="evenodd" clip-rule="evenodd" fill="#FFFFFF" d="M10.966,69.758c-2.181,0.454-4.359,0.925-6.546,1.347
		c-0.409,0.079-1.075,0.384-1.176-0.337c-0.11-0.798-0.11-1.647,0.045-2.434c0.125-0.63,0.74-0.399,1.204-0.303
		c2.17,0.45,4.339,0.894,6.51,1.34C10.99,69.5,10.978,69.629,10.966,69.758z"/>
	<path fill-rule="evenodd" clip-rule="evenodd" fill="#FFFFFF" d="M11.135,67.104c-1.546-1.107-3.099-2.208-4.637-3.328
		c-0.377-0.275-0.882-0.573-0.666-1.141c0.224-0.588,0.688-1.066,1.283-1.266c0.583-0.196,0.801,0.376,1.074,0.754
		c1.109,1.537,2.218,3.076,3.327,4.614C11.39,66.86,11.263,66.982,11.135,67.104z"/>
	<path fill-rule="evenodd" clip-rule="evenodd" fill="#FFFFFF" d="M52.284,69.514c1.342-0.242,2.682-0.486,4.023-0.726
		c0.604-0.107,1.37-0.352,1.459,0.561c0.103,1.065-0.805,0.951-1.457,0.899c-1.363-0.108-2.717-0.309-4.074-0.47
		C52.252,69.69,52.268,69.602,52.284,69.514z"/>
	<path fill-rule="evenodd" clip-rule="evenodd" fill="#FFFFFF" d="M52.532,66.074c-0.022-1.206,0.494-1.908,1.128-2.523
		c0.274-0.267,0.612-0.262,0.9,0.029c0.311,0.311,0.231,0.615-0.064,0.868C53.849,65,53.187,65.533,52.532,66.074z"/>
</g>
</svg>
