<?xml version="1.0" encoding="utf-8"?>
<!-- Generator: Adobe Illustrator 16.0.0, SVG Export Plug-In . SVG Version: 6.00 Build 0)  -->
<!DOCTYPE svg PUBLIC "-//W3C//DTD SVG 1.1//EN" "http://www.w3.org/Graphics/SVG/1.1/DTD/svg11.dtd">
<svg version="1.1" id="Layer_1" xmlns="http://www.w3.org/2000/svg" xmlns:xlink="http://www.w3.org/1999/xlink" x="0px" y="0px"
	 width="166.617px" height="98.676px" viewBox="0 0 166.617 98.676" enable-background="new 0 0 166.617 98.676"
	 xml:space="preserve">
<g>
	<path fill-rule="evenodd" clip-rule="evenodd" fill="#282828" d="M100.441,60.09c-0.078-2.429-1.279-4.261-3.967-5.082
		c-0.631-0.189-1.184-0.604-1.823-0.785c-0.977-0.277-1.045-0.83-0.898-1.634c0.275-1.495,0.51-2.999,0.648-4.511
		c1.2-13.541-0.657-26.313-11.165-36.908c-0.182,0.104-0.354,0.198-0.536,0.294c-4.088,4.26-6.974,9.116-8.719,14.561
		c-2.749,8.538-2.844,17.188-1.331,25.899c0.268,1.521,0.009,2.315-1.72,2.8c-3.396,0.95-5.03,3.162-4.935,6.42
		c0.017,0.329-0.018,0.665-0.018,0.994c0.009,3.318,0.018,6.628,0.026,9.946c0,0.363,0.061,0.718,0.104,1.175
		c3.724-2.212,7.319-4.346,11.018-6.541c0.502,1.633,0.95,3.076,1.4,4.537c3.275-0.018,6.42-0.035,9.998-0.053
		c0.294-1.485,0.579-2.964,0.89-4.563c3.812,2.229,7.406,4.338,11.226,6.576C100.579,68.688,100.579,64.385,100.441,60.09z
		 M83.313,39.808c-2.773,0-5.021-2.246-5.021-5.012c0-2.774,2.248-5.012,5.021-5.012c2.766,0,5.012,2.237,5.012,5.012
		C88.325,37.562,86.079,39.808,83.313,39.808z"/>
	<g>
		<g>
			<rect x="80.11" y="72.768" fill="#282828" width="1.562" height="14.737"/>
		</g>
		<g>
			<rect x="82.529" y="72.768" fill="#282828" width="1.56" height="7.618"/>
		</g>
		<g>
			<rect x="84.946" y="72.768" fill="#282828" width="1.561" height="11.889"/>
		</g>
	</g>
</g>
</svg>
