<?xml version="1.0" encoding="utf-8"?>
<!-- Generator: Adobe Illustrator 16.0.0, SVG Export Plug-In . SVG Version: 6.00 Build 0)  -->
<!DOCTYPE svg PUBLIC "-//W3C//DTD SVG 1.1//EN" "http://www.w3.org/Graphics/SVG/1.1/DTD/svg11.dtd">
<svg version="1.1" id="Layer_1" xmlns="http://www.w3.org/2000/svg" xmlns:xlink="http://www.w3.org/1999/xlink" x="0px" y="0px"
	 width="166.617px" height="98.676px" viewBox="0 0 166.617 98.676" enable-background="new 0 0 166.617 98.676"
	 xml:space="preserve">
<g>
	<g>
		<path fill-rule="evenodd" clip-rule="evenodd" fill="#282828" d="M19.618,10.238c-0.975,0.819-1.073,1.253-0.647,2.281
			c0.456,1.101,0.89,2.209,1.324,3.318c0.044,0.113,0.019,0.252-0.086,0.439c-0.313-0.482-0.63-0.961-1.021-1.557
			c0.053,0.541,0.095,0.953,0.153,1.553c-0.403-0.557-0.755-0.111-1.138-0.168c-0.532-0.078-0.789-0.353-1.076-0.646
			c-0.312-0.313-0.606-0.526-1.078-0.479c-0.564,0.059-1.192,0.831-1.132,1.4c0.095,0.891,0.148,1.785,0.221,2.678
			c-0.083,0.053-0.165,0.104-0.248,0.154c-0.204-0.344-0.406-0.688-0.599-1.013c-1.052,0.765-0.842,1.847-1.211,2.692
			c-0.572,0.033-0.884-0.222-0.933-0.84c-0.025-0.31,0.002-0.649,0.104-0.939c0.472-1.33,0.966-2.652,1.484-3.967
			c0.133-0.342,0.376-0.641,0.568-0.96c0.25-0.418,0.288-0.803-0.195-1.118c-0.076,0.097-0.157,0.197-0.279,0.352
			c-0.303-0.261-0.667-0.482-0.906-0.797c-0.365-0.479-0.712-0.346-1.109-0.109c-0.625,0.371-1.237,0.769-1.883,1.102
			c-0.612,0.315-1.242,0.607-1.892,0.832c-1.069,0.371-1.365,1.207-1.524,2.204c-0.147,0.934-0.388,1.853-0.59,2.78
			c-0.642,0.046-0.686-0.463-0.862-0.83c-0.023-0.047,0.002-0.113-0.008-0.169c-0.05-0.315-0.105-0.63-0.159-0.944
			c-0.403,0.097-0.869,0.096-1.197,0.308c-0.733,0.479-1.384,1.083-2.1,1.591c-0.275,0.195-0.631,0.291-0.966,0.383
			c-0.095,0.026-0.237-0.12-0.359-0.188c0.082-0.105,0.153-0.222,0.249-0.314c0.098-0.095,0.217-0.166,0.464-0.349
			c-0.419,0-0.666,0-0.987,0c0.06-0.155,0.073-0.325,0.145-0.354c1.913-0.795,3.059-2.412,4.324-3.926
			c0.768-0.914,1.687-1.711,2.593-2.498c0.787-0.686,1.659-1.279,2.484-1.922c0.302-0.236,0.3-0.482,0.054-0.805
			C9.36,9.102,9.187,8.727,9.051,8.355C8.868,7.854,8.826,7.322,8.373,6.92c-0.36-0.319,0.001-0.699,0.196-0.941
			c0.94-1.167,1.592-2.467,1.999-3.906c0.068-0.25,0.29-0.495,0.504-0.66c0.606-0.465,1.232-0.907,1.881-1.308
			c0.178-0.11,0.578-0.149,0.687-0.038c0.887,0.916,2.034,1.288,3.193,1.67c0.76,0.25,1.509,0.543,2.23,0.885
			c0.838,0.398,1.713,0.484,2.617,0.523c1.015,0.042,2.036,0.088,3.033,0.256c1.271,0.213,2.085,1.067,2.712,2.156
			c1.642,2.857,2.975,5.847,4.037,8.963c0.403,1.187,0.25,2.391,0.284,3.591c0.022,0.784,0.035,0.839,0.822,1.003
			c2.427,0.501,4.86,0.962,7.279,1.496c1.449,0.322,2.897,0.683,4.304,1.156c1.044,0.354,1.909,1.004,2.234,2.184
			c0.284,1.031,0,1.939-0.823,2.645c-2.273,1.939-4.933,3.295-7.399,4.939c-2.839,1.894-5.704,3.746-8.535,5.655
			c-0.331,0.224-0.54,0.663-0.74,1.038c-0.997,1.864-1.97,3.74-2.951,5.611c-1.524,2.896-3.08,5.773-4.557,8.693
			c-0.873,1.727-1.604,3.526-2.429,5.278c-0.311,0.659-0.701,1.278-1.053,1.914c-0.238,0.434-0.561,0.419-0.832,0.081
			c-0.276-0.346-0.518-0.733-0.7-1.135c-0.537-1.18-0.281-2.359,0.007-3.557c0.215-0.902,0.324-1.836,0.431-2.76
			c0.062-0.539,0.21-0.93,0.8-1.06c0.891-0.196,1.375-0.776,1.617-1.656c0.612-2.223,1.195-4.458,1.951-6.635
			c0.44-1.271,1.142-2.46,1.807-3.64c0.797-1.412,1.455-2.861,1.593-4.494c0.134-1.555,0.207-3.115,0.356-4.668
			c0.096-1.021,0.313-2.032,0.413-3.055c0.078-0.803-0.141-1.557-0.675-2.184c-0.75-0.875-1.065-1.881-1.132-3.029
			c-0.121-2.048,0.43-3.974,0.932-5.913c0.347-1.332-0.015-2.462-1.075-3.263C22.176,11.841,20.859,11.059,19.618,10.238z
			 M38.312,26.442c-0.176-0.071-0.271-0.146-0.367-0.146c-1.71-0.008-3.419-0.018-5.127,0.001c-0.555,0.005-1.143,0.481-1.278,1.003
			c-0.36,1.395-0.701,2.797-1.051,4.201c0.641,0.083,1.769-0.273,2.297-0.677c1.094-0.842,2.206-1.659,3.29-2.513
			C36.82,27.726,37.531,27.098,38.312,26.442z"/>
		<path fill-rule="evenodd" clip-rule="evenodd" fill="#282828" d="M49.721,55.19c-0.172-0.261-0.348-0.519-0.513-0.784
			c-1.743-2.826-4.165-4.922-6.954-6.683c-1.719-1.085-3.542-1.702-5.535-1.917c-0.616-0.065-1.229-0.23-1.841-0.209
			c-1.248,0.047-2.483,0.217-3.674,0.656c-1.882,0.695-3.38,1.973-4.935,3.164c-1.228,0.945-2.43,1.927-3.756,2.84
			c0.154-0.352,0.288-0.713,0.466-1.052c0.652-1.261,1.321-2.514,1.985-3.771c1.536-2.91,3.061-5.826,4.62-8.725
			c0.198-0.369,0.519-0.719,0.869-0.952c1.782-1.19,3.6-2.333,5.393-3.507c3.78-2.472,7.545-4.963,11.334-7.419
			c0.678-0.438,1.484-0.681,2.156-1.124c0.449-0.298,0.809-0.76,1.136-1.202c1.927-2.615,3.835-5.245,5.742-7.876
			c1.754-2.418,3.496-4.844,5.244-7.266c0.352-0.484,0.719-0.957,1.066-1.445c0.173-0.241,0.232-0.453-0.029-0.739
			c-1.076-1.187-0.581-3.005,0.768-3.475c1.948-0.681,3.896-1.366,5.847-2.044c0.102-0.035,0.225-0.005,0.516-0.005
			c-0.191,0.753-0.374,1.456-0.551,2.162c-0.23,0.91-1.129,1.211-1.664,1.841c-0.695,0.816-1.409,1.635-1.98,2.539
			c-1.398,2.205-2.729,4.455-4.063,6.699c-1.538,2.58-3.046,5.18-4.578,7.762c-1.35,2.279-2.717,4.549-4.079,6.82
			c-0.361,0.604-0.575,1.168-0.13,1.873c0.683,1.081,0.565,2.285,0.358,3.49c-0.239,1.379-0.431,2.768-0.641,4.151
			c-0.223,1.458-0.448,2.917-0.662,4.376c-0.205,1.426-0.387,2.854-0.596,4.277c-0.243,1.645-0.507,3.285-0.754,4.928
			c-0.1,0.666-0.178,1.334-0.274,2.002c-0.028,0.194-0.084,0.386-0.127,0.578C49.83,55.168,49.774,55.18,49.721,55.19z
			 M47.83,39.438c0.65-1.828,1.021-3.686,0.703-5.612c-0.125-0.741-0.636-1.188-1.165-1.005c-1.197,0.41-2.4,0.811-3.55,1.33
			c-3.294,1.489-6.262,3.533-9.264,5.521c-0.256,0.169-0.567,0.387-0.341,0.785c0.202,0.354,0.78,0.488,1.108,0.264
			c0.445-0.307,0.867-0.651,1.326-0.935c2.789-1.725,5.579-3.444,8.382-5.144c0.62-0.377,1.275-0.703,1.944-0.979
			c0.534-0.219,0.846,0.02,0.868,0.585c0.047,1.323,0.091,2.646,0.109,3.968C47.959,38.623,47.872,39.031,47.83,39.438z"/>
		<path fill-rule="evenodd" clip-rule="evenodd" fill="#282828" d="M165.326,96.148c-0.305-1.049-0.687-2.084-0.899-3.152
			c-0.334-1.662-0.62-3.342-0.807-5.027c-0.327-2.992-0.671-5.976-1.236-8.939c-0.794-4.143-1.784-8.227-3.237-12.184
			c-0.956-2.602-2.047-5.158-3.159-7.7c-1.638-3.741-3.747-7.224-6.084-10.562c-1.136-1.621-2.347-3.197-3.62-4.714
			c-1.248-1.488-2.58-2.912-3.944-4.297c-1.981-2.01-4.192-3.757-6.506-5.368c-2.291-1.594-4.7-2.982-7.222-4.167
			c-2.856-1.341-5.803-2.441-8.839-3.294c-1.896-0.534-3.794-1.082-5.713-1.525c-1.723-0.396-3.474-0.685-5.218-0.978
			c-1.548-0.26-3.102-0.491-4.66-0.676c-1.118-0.132-2.249-0.208-3.377-0.235c-4.057-0.096-8.112-0.216-12.169-0.211
			c-1.817,0.002-3.634,0.262-5.448,0.431c-1.419,0.132-2.835,0.285-4.247,0.464c-0.888,0.114-1.766,0.303-2.65,0.434
			c-0.298,0.043-0.605,0.006-1.079,0.006c0.448-0.387,0.795-0.699,1.158-0.992c0.886-0.719,1.8-1.405,2.667-2.146
			c1.084-0.926,1.921-2.072,2.59-3.314c0.762-1.414,1.714-1.307,2.945-1.252c1.09,0.049,2.187,0.008,3.279,0.009
			c1.154,0.001,2.311,0.001,3.467,0.011c0.224,0.002,0.446,0.051,0.672,0.064c2.07,0.116,4.144,0.193,6.21,0.355
			c1.717,0.135,3.44,0.294,5.137,0.578c2.719,0.453,5.439,0.934,8.12,1.563c2.641,0.622,5.258,1.373,7.844,2.194
			c3.742,1.189,7.327,2.78,10.778,4.653c2.992,1.622,5.816,3.497,8.492,5.614c2.053,1.624,3.965,3.399,5.718,5.326
			c1.561,1.716,2.987,3.56,4.4,5.402c1.452,1.896,2.856,3.833,4.212,5.802c1.993,2.901,3.615,6.021,5.108,9.203
			c1.505,3.209,2.851,6.49,3.837,9.889c0.925,3.178,1.694,6.404,2.411,9.635c0.431,1.945,0.655,3.938,0.926,5.918
			c0.163,1.189,0.288,2.388,0.339,3.586c0.08,1.912,0.093,3.827,0.121,5.741c0.016,0.993,0.012,1.988-0.003,2.981
			c-0.004,0.286-0.082,0.57-0.125,0.856C165.451,96.137,165.39,96.143,165.326,96.148z"/>
		<path fill-rule="evenodd" clip-rule="evenodd" fill="#282828" d="M99.398,71.438c0.322-1.078,0.687-2.145,0.961-3.236
			c0.349-1.389,0.623-2.795,0.929-4.195c0.102-0.467,0.7-0.828,1.234-0.699c0.341,0.082,0.673,0.221,0.992,0.363
			c0.511,0.229,0.658,0.553,0.535,1.168c-0.41,2.098-0.79,4.209-0.721,6.361c0.017,0.486,0.141,0.967,0.216,1.45
			c0.077,0.019,0.154,0.036,0.232,0.053c0.276-0.491,0.647-0.953,0.809-1.479c0.647-2.133,1.27-4.275,1.809-6.438
			c0.185-0.736,0.11-1.539,0.137-2.313c0.022-0.703,0.423-1.114,1.126-1.122c0.246-0.003,0.496-0.025,0.739,0.008
			c0.646,0.089,1.101,0.743,0.832,1.443c-0.516,1.348-0.119,2.608,0.192,3.882c0.32,1.318,0.804,2.605,1.021,3.937
			c0.234,1.443,0.127,2.855-0.971,4.067c-0.736,0.814-2.489,0.656-3.162,0.082c-0.362-0.309-0.787-0.543-1.184-0.811
			c0.048-0.116,0.095-0.232,0.144-0.348c-0.163,0.197-0.318,0.402-0.489,0.592c-0.674,0.744-2.128,0.738-2.626-0.428
			c-0.341-0.795-0.546-1.648-0.747-2.275c-0.278,0.621-0.609,1.5-1.056,2.316c-0.422,0.772-1.146,1.051-1.845,0.856
			c-0.5-0.14-1.111-0.978-1.093-1.648c0.035-1.279,0.137-2.558,0.209-3.837c0.012-0.186,0.002-0.373-0.069-0.567
			c-0.283,1.261-0.548,2.526-0.86,3.78c-0.208,0.836-0.538,1.616-1.148,2.271c-0.4,0.424-0.853,0.584-1.374,0.445
			c-0.517-0.139-0.808-0.587-0.862-1.086c-0.122-1.082-0.17-2.172-0.241-3.259c-0.016-0.226-0.004-0.45-0.004-0.745
			c-0.728,0.471-1.442,0.73-2.087,0.377c-0.462,1.168-0.856,2.329-1.375,3.432c-0.488,1.035-1.428,1.361-2.512,1.182
			c-0.95-0.158-1.426-0.885-1.779-1.701c-0.065-0.152-0.104-0.316-0.154-0.471c-0.267,0.448-0.474,0.943-0.807,1.335
			c-0.616,0.721-1.703,0.71-2.409,0.065c-0.741-0.678-0.957-1.588-1.077-2.514c-0.113-0.878-0.124-1.768-0.188-2.779
			c-0.346,1.421-0.669,2.729-0.979,4.042c-0.137,0.58-0.258,1.164-0.367,1.751c-0.089,0.465-0.464,0.567-0.82,0.609
			c-0.45,0.055-0.896-0.1-1.069-0.553c-0.238-0.619-0.509-1.263-0.56-1.912c-0.114-1.412-0.171-2.838-0.117-4.255
			c0.05-1.325,0.279-2.644,0.425-3.966c0.122-1.118,0.229-2.238,0.354-3.355c0.143-1.246,0.329-2.488,0.437-3.736
			c0.09-1.074,0.113-2.154,0.123-3.23c0.005-0.481,0.123-0.9,0.563-1.075c0.525-0.207,1.112-0.306,1.619,0.062
			c0.478,0.347,0.384,0.908,0.3,1.369c-0.253,1.371-0.619,2.721-0.862,4.094c-0.216,1.213-0.331,2.446-0.484,3.671
			s-0.361,2.448-0.433,3.68c-0.073,1.292-0.018,2.592-0.018,3.916c0.538-2.146,1.072-4.286,1.609-6.425
			c0.026-0.108,0.071-0.212,0.1-0.319c0.341-1.337,0.968-1.532,2.132-0.819c0.782,0.48,0.751,1.084,0.597,1.816
			c-0.492,2.342-0.769,4.712-0.666,7.111c0.019,0.417,0.193,0.829,0.327,1.363c0.239-0.226,0.389-0.306,0.444-0.428
			c0.674-1.489,1.521-2.91,1.538-4.636c0.005-0.716,0.237-1.431,0.368-2.144c0.018-0.093,0.072-0.186,0.06-0.271
			c-0.109-0.949,0.341-1.779,0.565-2.653c0.363-1.405,1.091-1.426,1.938-1.29c1.153,0.185,2.69,1.238,3.013,2.496
			c0.149,0.592,0.156,1.228,0.175,1.845c0.028,0.921,0.008,1.843,0.008,2.738c0.839,0.142,1.371-0.149,1.598-0.866
			c0.149-0.473,0.176-0.984,0.24-1.482c0.055-0.389,0.039-0.789,0.126-1.17c0.172-0.77,0.522-1.04,1.383-0.957
			c0.465,0.046,1,0.613,0.979,1.197c-0.04,1.088-0.137,2.176-0.231,3.262c-0.079,0.916-0.187,1.826-0.282,2.739
			c0.061,0.01,0.124,0.021,0.186,0.03c0.157-0.75,0.321-1.498,0.47-2.25c0.284-1.445,0.543-2.896,1.231-4.221
			c0.283-0.544,0.593-1.038,1.35-0.993c0.735,0.042,1.021,0.181,1.261,0.879c0.279,0.812,0.341,1.642,0.172,2.495
			c-0.091,0.459-0.114,0.932-0.144,1.399c-0.058,0.962-0.1,1.922-0.146,2.883C99.256,71.408,99.326,71.423,99.398,71.438z
			 M88.325,63.498c-0.063,0.021-0.123,0.04-0.186,0.059c-0.116,0.313-0.271,0.615-0.338,0.936c-0.261,1.22-0.578,2.438-0.71,3.671
			c-0.13,1.224-0.117,2.472-0.049,3.701c0.023,0.431,0.156,0.994,0.737,1.212c0.75-1.291,1.475-2.602,1.262-4.123
			c-0.224-1.621-0.515-3.229-0.443-4.876C88.607,63.889,88.42,63.691,88.325,63.498z M106.272,71.623
			c0.162,0.359,0.275,0.572,0.357,0.799c0.157,0.435,0.26,0.963,0.82,1.012c0.575,0.049,0.71-0.45,0.836-0.885
			c0.277-0.96,0.113-1.915-0.093-2.859c-0.132-0.618-0.325-1.224-0.515-1.916C107.162,69.188,106.693,70.475,106.272,71.623z"/>
		<path fill-rule="evenodd" clip-rule="evenodd" fill="#282828" d="M31.359,77.543c-1.618-0.042-3.212-0.217-4.687-0.945
			c-1.008-0.5-1.685-1.314-1.731-2.444c-0.047-1.162,0.382-2.224,1.317-2.97c0.792-0.63,0.842-0.617,1.683,0
			c1.769,1.301,4.396,0.647,5.681-1.074c0.69-0.925,1.459-1.888,2.406-2.502c1.35-0.877,2.887-1.472,4.362-2.143
			c1.85-0.844,3.54-1.891,4.777-3.545c0.729-0.972,0.447-1.404-0.207-2.174c-2.012-2.361-4.586-3.938-7.346-5.247
			c-1.144-0.542-2.337-0.979-3.485-1.515c-0.867-0.404-1.536-1.046-1.661-2.048c-0.108-0.88,0.313-1.651,0.741-2.368
			c0.813-1.364,1.415-1.53,3.178-1.115c2.487,0.584,4.633,1.862,6.649,3.35c1.206,0.89,2.34,1.896,3.409,2.949
			c1.406,1.385,2.548,2.992,3.446,4.753c0.438,0.856,0.831,1.746,1.135,2.658c0.331,1.001,0.199,2.034-0.349,2.928
			c-0.613,1.001-1.242,2.023-2.044,2.866c-1.52,1.6-3.404,2.635-5.569,3.178c-2.287,0.574-4.514,1.35-6.451,2.736
			c-0.467,0.335-0.772,0.926-1.085,1.439c-0.187,0.309-0.227,0.707-0.362,1.051c-0.542,1.387-1.326,2.049-3.066,2.179
			C31.855,77.559,31.606,77.543,31.359,77.543z"/>
		<path fill-rule="evenodd" clip-rule="evenodd" fill="#282828" d="M53.06,62.293c0.089,0.464,0.202,0.925,0.26,1.393
			c0.131,1.06,0.254,2.121,0.348,3.186c0.13,1.518,0.354,3.041,0.31,4.555c-0.05,1.64-0.326,3.277-0.578,4.903
			c-0.076,0.495-0.394,0.955-0.652,1.552c-0.137-0.192-0.291-0.312-0.307-0.447c-0.097-0.799-0.135-1.607-0.247-2.405
			c-0.151-1.093-0.457-2.099-1.997-2.415c-0.908-0.188-1.72,0.163-2.515,0.508c-1.047,0.453-1.885,1.227-2.554,2.105
			c-0.959,1.256-1.907,2.555-2.612,3.96c-0.703,1.401-1.124,2.946-1.624,4.443c-0.359,1.073-0.6,2.192-0.45,3.323
			c0.266,2.033,0.644,4.043,1.442,5.956c0.792,1.894,1.832,3.629,3.095,5.24c0.102,0.128,0.169,0.282,0.178,0.526
			c-0.141-0.076-0.308-0.127-0.419-0.234c-2.444-2.358-4.739-4.85-6.577-7.721c-1.04-1.621-1.653-3.414-1.94-5.316
			c-0.206-1.365-0.396-2.733-0.685-4.119c-0.044,0.171-0.121,0.342-0.124,0.515c-0.049,1.927,0.024,3.847,0.328,5.755
			c0.29,1.826,0.407,3.69,0.85,5.477c0.334,1.355,1.063,2.614,1.603,3.922c0.145,0.347,0.237,0.715,0.287,1.105
			c-0.827-0.354-1.311-1.021-1.803-1.68c-1.24-1.663-2.09-3.514-2.643-5.51c-0.53-1.916-1.082-3.828-1.606-5.744
			c-0.119-0.43-0.169-0.878-0.328-1.336c-0.078,0.441-0.21,0.881-0.224,1.325c-0.089,2.799,0.482,5.514,1.159,8.204
			c0.189,0.746,0.598,1.438,0.815,2.29c-0.186-0.09-0.411-0.14-0.552-0.277c-0.981-0.963-1.597-2.157-2.095-3.417
			c-0.815-2.066-1.381-4.209-1.808-6.381c-0.306-1.557-0.479-3.139-0.709-4.711c-0.046-0.314-0.08-0.632-0.147-0.941
			c-0.151-0.691,0.222-0.975,0.938-0.911c1.444,0.13,2.872,0.549,4.35,0.101c0.96-0.289,1.585-0.887,2.061-1.692
			c0.227-0.384,0.426-0.798,0.549-1.222c0.464-1.588,1.578-2.375,3.109-2.84c2.576-0.783,5.239-1.332,7.648-2.611
			c1.75-0.931,3.114-2.267,4.135-3.965c0.778-1.297,1.262-2.691,1.45-4.189c0.009-0.084,0.068-0.164,0.104-0.244
			C52.94,62.303,53,62.297,53.06,62.293z"/>
		<path fill-rule="evenodd" clip-rule="evenodd" fill="#282828" d="M84.267,14.705c0.333-1.049,0.59-1.938,0.913-2.804
			c0.06-0.16,0.397-0.31,0.6-0.306c2.194,0.054,4.389,0.115,6.579,0.224c1.387,0.069,2.774,0.188,4.155,0.341
			c1.786,0.195,3.565,0.44,5.347,0.67c1.446,0.188,2.896,0.352,4.337,0.584c1.894,0.309,3.802,0.584,5.662,1.042
			c2.905,0.714,5.8,1.499,8.657,2.384c3.407,1.053,6.686,2.447,9.854,4.097c3.518,1.833,6.846,3.955,9.992,6.376
			c2.904,2.23,5.581,4.711,8.026,7.412c2.146,2.37,4.126,4.9,6.054,7.458c3.262,4.326,5.896,9.042,8.181,13.946
			c1.509,3.239,2.881,6.545,3.666,10.055c0.145,0.641,0.22,1.297,0.327,1.946c-0.053,0.019-0.103,0.036-0.156,0.056
			c-0.065-0.055-0.162-0.095-0.19-0.164c-0.928-2.157-1.849-4.318-2.772-6.475c-0.566-1.318-1.121-2.643-1.714-3.949
			c-1.824-4.001-3.94-7.841-6.466-11.445c-1.337-1.911-2.728-3.787-4.156-5.635c-1.813-2.349-3.814-4.543-5.996-6.555
			c-1.696-1.564-3.49-3.025-5.265-4.503c-2.476-2.062-5.182-3.804-7.969-5.396c-2.038-1.165-4.155-2.212-6.311-3.147
			c-2.37-1.03-4.782-1.999-7.247-2.764c-2.732-0.85-5.532-1.484-8.325-2.119c-1.743-0.397-3.52-0.654-5.29-0.914
			c-1.188-0.174-2.388-0.273-3.584-0.352c-2.147-0.139-4.293-0.24-6.439-0.347c-1.038-0.052-2.078-0.127-3.117-0.105
			c-1.944,0.04-3.89,0.137-5.834,0.224C85.34,14.559,84.897,14.634,84.267,14.705z"/>
		<path fill-rule="evenodd" clip-rule="evenodd" fill="#282828" d="M142.307,61.77c1.425,1.212,2.935,2.391,4.319,3.701
			c1.32,1.25,1.952,2.893,1.878,4.709c-0.072,1.764-0.899,3.178-2.295,4.309c-1.181,0.955-2.468,1.598-3.952,1.852
			c-2.355,0.403-4.533-0.01-6.478-1.451c-1.321-0.982-2.323-2.219-2.587-3.869c-0.247-1.543-0.144-3.119,0.746-4.46
			c1.095-1.646,2.317-3.206,3.481-4.8c-0.367-0.452-0.878-0.987-1.281-1.596c-0.688-1.042-0.819-2.207-0.648-3.44
			c0.271-1.946,1.171-3.539,2.602-4.843c1.636-1.489,3.591-1.652,5.337-0.332c0.797,0.6,1.491,1.356,2.146,2.115
			c1.057,1.229,0.842,2.635,0.276,3.971c-0.653,1.55-1.706,2.814-3.128,3.752C142.525,61.519,142.369,61.713,142.307,61.77z
			 M140.048,63.473c-0.774,0.815-1.559,1.654-2.359,2.475c-0.875,0.896-1.566,1.912-2.065,3.058
			c-0.281,0.644-0.356,1.291-0.137,1.985c0.393,1.242,1.424,1.824,2.473,2.289c2.071,0.921,5.026,0.304,6.554-1.336
			c1.468-1.574,1.642-3.773,0.03-5.428C143.275,65.215,141.74,64.342,140.048,63.473z M138.126,57.629
			c-0.081,0.873,0.356,1.678,1.103,2.365c0.244,0.225,0.403,0.262,0.666,0.031c0.604-0.529,1.274-0.989,1.847-1.549
			c0.649-0.635,1.305-1.295,1.79-2.052c0.238-0.376,0.257-1.048,0.107-1.495c-0.56-1.673-2.197-2.021-3.75-1.072
			C138.603,54.644,138.12,55.965,138.126,57.629z"/>
		<path fill-rule="evenodd" clip-rule="evenodd" fill="#282828" d="M80.665,10.836c-2.032,0.857-3.909,1.679-5.812,2.438
			c-0.596,0.239-1.257,0.318-1.891,0.457c-1.234,0.271-2.479,0.502-3.703,0.817c-0.521,0.136-1.131,0.325-1.472,0.699
			c-1.068,1.177-2.034,2.448-3.03,3.689c-1.02,1.271-1.988,2.583-3.054,3.81c-1.313,1.51-2.66,2.995-4.074,4.408
			c-0.966,0.967-2.068,1.799-3.119,2.68c-0.115,0.097-0.289,0.122-0.597,0.245c0.265-0.478,0.438-0.837,0.651-1.171
			c1.664-2.588,3.338-5.17,5.003-7.757c1.161-1.805,2.325-3.604,3.46-5.425c0.459-0.736,0.882-1.501,1.248-2.287
			c0.225-0.484,0.578-0.708,1.045-0.837c1.792-0.493,3.6-0.938,5.373-1.491c1.631-0.511,3.259-1.066,4.83-1.731
			c2.422-1.023,4.794-2.167,7.195-3.241c0.798-0.355,1.033-0.214,1.315,0.604c0.833,2.418,0.472,4.759-0.451,7.06
			c-1.156,2.878-2.791,5.45-5.139,7.493c-1.677,1.458-3.485,2.768-5.664,3.414c-0.923,0.274-1.871,0.405-2.938,0.113
			c0.897-0.725,1.716-1.389,2.538-2.05c1.662-1.337,3.389-2.604,4.974-4.026c1.685-1.513,2.534-3.527,2.925-5.738
			C80.403,12.315,80.526,11.623,80.665,10.836z"/>
		<path fill-rule="evenodd" clip-rule="evenodd" fill="#282828" d="M145.174,79.942c0.074-0.464,0.126-0.795,0.176-1.126
			c0.078-0.482,0.367-0.678,0.832-0.564c0.449,0.109,0.47,0.408,0.303,0.785c-0.05,0.109-0.008,0.26-0.008,0.338
			c0.324,0.142,0.618,0.243,0.881,0.4c0.077,0.047,0.059,0.255,0.085,0.389c-0.13,0-0.271,0.034-0.389-0.004
			c-0.21-0.065-0.406-0.176-0.631-0.277c-0.347,2.178-0.441,4.244,0.178,6.335c0.112-0.277,0.264-0.547,0.331-0.836
			c0.284-1.214,0.537-2.436,0.825-3.647c0.026-0.114,0.214-0.19,0.328-0.285c0.044,0.115,0.147,0.244,0.125,0.343
			c-0.38,1.687-0.751,3.376-1.194,5.045c-0.076,0.292-0.425,0.624-0.718,0.723c-0.479,0.159-0.729-0.286-0.825-0.661
			c-0.246-0.933-0.42-1.885-0.611-2.787c-0.117,0.254-0.264,0.62-0.443,0.97c-0.358,0.694-0.725,1.386-1.113,2.062
			c-0.086,0.149-0.27,0.288-0.436,0.336c-0.28,0.079-0.584,0.083-0.878,0.12c0.028-0.339-0.059-0.75,0.103-1.001
			c0.484-0.742,0.729-1.519,0.36-2.328c-0.226-0.494-0.674-0.886-1.066-1.379c-0.146,0.391-0.254,0.736-0.405,1.063
			c-0.619,1.336-1.326,1.477-2.431,0.471c-0.315,0.533-0.642,1.115-1.379,0.979c-0.665-0.122-0.753-0.743-0.887-1.284
			c-0.361,0.539-0.043,1.441-0.935,1.638c-1.1,0.241-1.306-0.567-1.472-1.401c-0.877,1.061-1.819,0.966-2.329-0.201
			c-0.137,0.496-0.243,0.936-0.382,1.362c-0.102,0.313-0.211,0.638-0.385,0.914c-0.392,0.627-0.998,0.569-1.364-0.088
			c-0.6-1.077-0.771-3.331-0.537-4.542c-0.206,0-0.406,0-0.521,0c-0.483,1.357-0.931,2.695-1.447,4.006
			c-0.106,0.264-0.5,0.619-0.706,0.586c-0.27-0.043-0.571-0.39-0.703-0.678c-0.214-0.467-0.3-0.992-0.431-1.468
			c-0.358,0.118-0.751,0.354-1.135,0.341c-0.353-0.014-0.696-0.295-1.127-0.497c-0.122,0.507-0.257,1.138-0.432,1.758
			c-0.129,0.446-0.26,0.901-0.472,1.308c-0.322,0.619-1.066,0.632-1.307-0.017c-0.294-0.792-0.484-1.645-0.581-2.485
			c-0.161-1.4-0.175-2.813,0.087-4.211c0.005-0.031-0.022-0.068,0.013,0.029c-0.542-0.309-0.985-0.561-1.469-0.837
			c0-0.151-0.05-0.354,0.01-0.519c0.148-0.414-0.091-0.666-0.396-0.703c-0.25-0.031-0.61,0.123-0.778,0.318
			c-0.315,0.359-0.195,0.816,0.034,1.188c0.383,0.619,0.823,1.201,1.215,1.813c0.454,0.705,0.775,1.448,0.688,2.327
			c-0.07,0.7-0.677,1.493-1.372,1.694c-1.044,0.302-1.894,0.1-2.324-0.555c-0.571-0.872-0.002-2.292,1.014-2.463
			c0.254-0.043,0.535,0.074,0.952,0.141c-0.399-0.545-0.732-1.016-1.085-1.473c-0.577-0.744-0.963-1.534-0.588-2.49
			c0.396-1.018,1.861-1.597,2.784-0.888c0.217,0.167,0.334,0.554,0.366,0.852c0.062,0.567,0.387,0.921,1.009,0.938
			c0.091-0.375,0.237-0.75,0.259-1.132c0.038-0.62,0.471-0.448,0.788-0.423c0.425,0.034,0.385,0.384,0.34,0.688
			c-0.021,0.158-0.075,0.313-0.115,0.473c0.985,0.193,1.177,0.396,0.86,0.834c-0.282-0.126-0.561-0.25-0.887-0.395
			c-0.279,2.191-0.458,4.279,0.089,6.351c0.05,0.011,0.102,0.021,0.153,0.032c0.123-0.373,0.281-0.737,0.366-1.119
			c0.254-1.145,0.456-2.301,0.722-3.442c0.277-1.2,1.253-1.481,2.221-1.011c0.316,0.152,0.635,0.361,0.967,0.4
			c0.409,0.049,0.445,0.245,0.439,0.565c-0.012,0.799-0.012,1.598,0,2.396c0.007,0.297,0.064,0.592,0.117,1.051
			c0.809-1.09,1.005-2.23,1.245-3.354c-0.587-0.412-0.653-0.62-0.286-0.984c0.396,0.747,1.053,0.646,1.708,0.501
			c0.691-0.153,0.76-0.042,0.77,0.619c0.019,1.146,0.131,2.288,0.223,3.432c0.013,0.153,0.139,0.297,0.212,0.445
			c0.056,0.01,0.111,0.019,0.168,0.028c0.141-0.455,0.322-0.903,0.412-1.367c0.184-0.935,0.313-1.877,0.473-2.814
			c0.1-0.576,0.677-0.923,1.261-0.766c0.282,0.078,0.563,0.164,0.812,0.237c0.221-1.022,0.423-2.044,0.663-3.056
			c0.118-0.503,0.344-1.095,0.952-0.981c0.628,0.115,0.434,0.784,0.38,1.202c-0.137,1.051-0.274,2.121-0.603,3.122
			c-0.245,0.741-0.092,1.407-0.016,2.102c0.054,0.479,0.2,0.948,0.307,1.422c0.094,0.005,0.184,0.011,0.278,0.015
			c0.212-0.888,0.436-1.773,0.636-2.664c0.068-0.308,0.063-0.633,0.126-0.941c0.069-0.344,0.237-0.61,0.653-0.471
			c0.334,0.111,0.576,0.171,0.519,0.721c-0.085,0.84,0.095,1.71,0.181,2.565c0.01,0.104,0.139,0.196,0.213,0.294
			c0.085-0.105,0.228-0.202,0.244-0.318c0.095-0.665,0.159-1.335,0.237-2.004c0.068-0.573,0.115-1.152,0.231-1.717
			c0.03-0.153,0.316-0.398,0.403-0.366c0.19,0.066,0.43,0.265,0.464,0.443c0.069,0.366,0.026,0.757,0.012,1.137
			c-0.023,0.621-0.136,1.249-0.068,1.858c0.039,0.361,0.352,0.691,0.593,1.135c0.884-0.936,1.107-1.924,1.106-2.996
			c0-0.652,0.361-1.077,0.999-1.142c0.334-0.034,0.675-0.007,1.012-0.007c0.025,0.064,0.049,0.127,0.074,0.191
			c-0.157,0.083-0.308,0.214-0.474,0.238c-0.6,0.088-0.731,0.278-0.43,0.811c0.302,0.533,0.699,1.016,0.979,1.559
			c0.282,0.553,0.474,1.152,0.692,1.705c0.84-1.314,1.121-2.898,1.206-4.445c-0.372-0.25-0.732-0.479-1.07-0.738
			c-0.033-0.025,0.076-0.238,0.113-0.336C144.488,79.592,144.802,79.754,145.174,79.942z M118.036,84.037
			c-0.2-0.174-0.314-0.295-0.449-0.383c-0.222-0.146-0.454-0.372-0.69-0.382c-0.502-0.022-0.791,0.425-0.791,1.079
			c0,0.563,0.319,0.926,0.851,0.969c0.516,0.041,0.896-0.252,0.991-0.768C117.983,84.354,118.016,84.154,118.036,84.037z
			 M124.515,83.814c0.535-0.461,0.414-1.105,0.54-1.698c0.15-0.683-0.194-0.847-0.656-1.03
			C123.641,81.885,123.698,83.094,124.515,83.814z M132.692,81.4c-0.305,0.85-0.11,1.649,0.1,2.436
			c0.036,0.141,0.299,0.224,0.456,0.334c0.146-0.242,0.371-0.471,0.416-0.729c0.053-0.317-0.107-0.669-0.064-0.992
			C133.685,81.79,133.344,81.539,132.692,81.4z"/>
		<path fill-rule="evenodd" clip-rule="evenodd" fill="#282828" d="M71.471,55.892c-0.153,0.977-0.315,1.933-0.45,2.893
			c-0.198,1.425-0.394,2.852-0.561,4.282c-0.141,1.191-0.236,2.389-0.356,3.584c-0.146,1.473-0.357,2.943-0.431,4.422
			c-0.06,1.229,0.034,2.465,0.074,3.699c0.01,0.314,0.133,0.639,0.088,0.939c-0.028,0.172-0.3,0.445-0.448,0.438
			c-0.65-0.03-1.295-0.197-1.577-0.867c-0.206-0.49-0.382-1.027-0.409-1.553c-0.059-1.175-0.073-2.36-0.006-3.535
			c0.103-1.799,0.295-3.595,0.438-5.393c0.089-1.125,0.156-2.252,0.236-3.379c0.112-1.576,0.228-3.152,0.338-4.729
			c0.013-0.184,0.001-0.369,0.001-0.627c-1.942,0.122-3.838,0.102-5.582,0.983c-0.192,0.097-0.318,0.326-0.478,0.494
			c0.177,0.121,0.34,0.28,0.533,0.356c0.908,0.363,1.838,0.219,2.768,0.096c0.612-0.082,1.229-0.139,1.847-0.174
			c0.139-0.008,0.375,0.094,0.404,0.193c0.047,0.153-0.003,0.375-0.087,0.521c-0.489,0.84-1.31,1.227-2.197,1.406
			c-1.073,0.219-2.156,0.203-3.237-0.084c-1.221-0.325-2.037-1.332-2.084-2.578c-0.047-1.285,0.815-2.484,2.068-2.676
			c1.217-0.185,2.429-0.446,3.651-0.545c2.104-0.173,4.215-0.245,6.323-0.359c1.414-0.076,2.824-0.167,4.237-0.222
			c0.834-0.032,1.242,0.241,1.29,0.773c0.057,0.636-0.472,1.196-1.248,1.252c-1.314,0.097-2.633,0.153-3.951,0.239
			C72.294,55.769,71.925,55.834,71.471,55.892z"/>
		<path fill-rule="evenodd" clip-rule="evenodd" fill="#282828" d="M55.054,70.021c0-0.62,0.005-1.075-0.002-1.53
			c-0.019-2.087-0.219-4.162-0.833-6.156c-0.54-1.754-1.375-3.397-2.522-4.838c-0.559-0.699-0.601-1.449-0.494-2.229
			c0.222-1.627,0.505-3.243,0.771-4.863c0.212-1.287,0.451-2.568,0.658-3.857c0.141-0.887,0.242-1.777,0.37-2.665
			c0.033-0.229,0.103-0.454,0.303-0.73c0.275,0.439,0.569,0.869,0.819,1.321c1.309,2.356,2.04,4.902,2.524,7.543
			c0.475,2.589,0.651,5.198,0.542,7.816c-0.126,3.027-0.368,6.052-1.36,8.952C55.692,69.189,55.602,69.656,55.054,70.021z"/>
		<path fill-rule="evenodd" clip-rule="evenodd" fill="#282828" d="M20.606,40.418c-0.093,0.494-0.143,1-0.283,1.48
			c-0.644,2.213-1.318,4.418-1.966,6.629c-0.242,0.834-0.793,1.428-1.509,1.813c-1.037,0.554-1.341,1.592-1.115,2.663
			c0.159,0.761,0.134,1.593-0.323,2.294c-0.135,0.203-0.423,0.379-0.66,0.41c-0.129,0.017-0.345-0.271-0.448-0.462
			c-0.74-1.359-0.597-2.793-0.149-4.167c0.579-1.783,1.315-3.515,1.978-5.271c0.177-0.468,0.342-0.943,0.477-1.424
			c0.04-0.148,0.014-0.41-0.08-0.475c-0.136-0.095-0.396-0.131-0.545-0.063c-0.646,0.285-1.283,0.598-1.901,0.939
			c-0.653,0.361-1.289,0.75-1.912,1.156c-0.929,0.604-0.976,0.869-0.691,2.158c0.185,0.836,0.291,1.69,0.4,2.54
			c0.022,0.159-0.06,0.451-0.156,0.481c-0.169,0.053-0.459,0.016-0.568-0.104c-1.208-1.328-2.239-2.774-2.428-4.621
			c-0.112-1.111,0.577-1.93,1.421-2.469c1.885-1.203,3.813-2.346,5.784-3.401c1.006-0.536,2.145-0.829,3.221-1.231
			C19.93,39.004,20.729,39.471,20.606,40.418z"/>
		<path fill-rule="evenodd" clip-rule="evenodd" fill="#282828" d="M117.855,70.361c-0.165,0.587-0.281,1.193-0.506,1.756
			c-0.297,0.737-0.593,1.5-1.044,2.143c-0.764,1.091-2.702,1.086-3.506-0.055c-0.605-0.859-0.834-1.822-0.899-2.841
			c-0.05-0.81-0.139-1.622-0.1-2.431c0.05-1.006,0.229-2.006,0.321-3.012c0.097-1.063,0.45-2.066,0.656-3.1
			c0.315-1.566,1.547-1.74,2.532-1.328c1.274,0.533,2.392,1.363,2.595,2.86c0.15,1.118,0.092,2.265,0.149,3.396
			c0.014,0.261,0.122,0.517,0.188,0.775c0.304-0.112,0.662-0.155,0.896-0.351c0.714-0.593,0.697-1.527,0.969-2.324
			c0.109-0.314,0.138-0.654,0.236-0.973c0.198-0.649,0.392-0.783,1.021-0.668c0.532,0.098,0.593,0.529,0.557,0.959
			c-0.134,1.629-0.63,3.145-1.549,4.496C119.83,70.47,118.95,70.684,117.855,70.361z M115.425,63.498
			c-0.076,0.001-0.153,0.002-0.229,0.004c-0.085,0.174-0.191,0.344-0.249,0.527c-0.729,2.327-1.174,4.697-1,7.149
			c0.032,0.457,0.152,0.917,0.297,1.354c0.06,0.181,0.271,0.338,0.453,0.434c0.047,0.023,0.271-0.212,0.357-0.36
			c0.905-1.554,1.187-3.207,0.799-4.974c-0.222-1.004-0.438-2.005-0.213-3.057C115.71,64.246,115.504,63.857,115.425,63.498z"/>
		<path fill-rule="evenodd" clip-rule="evenodd" fill="#282828" d="M129.854,52.676c0.654,0,1.3-0.067,1.923,0.018
			c0.745,0.103,1.195,0.881,1.019,1.629c-0.466,1.965-0.785,3.95-0.944,5.965c-0.126,1.627-0.314,3.248-0.443,4.875
			c-0.104,1.314-0.165,2.633-0.231,3.949c-0.051,1.02-0.118,2.039-0.104,3.059c0.011,0.785,0.113,1.571,0.217,2.352
			c0.132,0.986-0.491,1.554-1.452,1.268c-1.056-0.316-1.476-1.021-1.473-2.188c0.003-1.672,0.187-3.344,0.313-5.012
			c0.098-1.272,0.23-2.541,0.343-3.813c0.116-1.289,0.237-2.58,0.334-3.871c0.015-0.188-0.028-0.447-0.149-0.565
			c-0.717-0.698-0.725-1.509-0.488-2.395c0.332-1.237,0.655-2.479,0.948-3.728C129.77,53.769,129.779,53.295,129.854,52.676z"/>
		<path fill-rule="evenodd" clip-rule="evenodd" fill="#282828" d="M91.369,81.165c-0.423,1.241-0.795,2.322-1.172,3.418
			c0.278,0.053,0.511,0.097,0.842,0.159c0.475-0.825,0.998-1.664,1.446-2.539c0.169-0.333,0.139-0.765,0.257-1.131
			c0.2-0.613,0.7-0.906,1.409-0.889c0.547,0.016,0.963,0.352,1.132,0.916c0.158,0.543-0.157,1.156-0.713,1.35
			c-0.226,0.078-0.462,0.121-0.729,0.188c0.063,0.25,0.051,0.559,0.2,0.732c0.237,0.279,0.572,0.645,0.878,0.656
			c0.569,0.021,0.906-0.469,1.091-0.976c0.132-0.364,0.182-0.759,0.247-1.144c0.174-1.035,0.663-1.338,1.652-1.007
			c0.192,0.064,0.385,0.13,0.519,0.174c0.194-1.015,0.354-2.009,0.587-2.984c0.079-0.325,0.315-0.632,0.541-0.895
			c0.109-0.128,0.392-0.225,0.535-0.171c0.13,0.049,0.234,0.313,0.253,0.492c0.125,1.236-0.102,2.455-0.499,3.598
			c-0.322,0.936-0.126,1.792-0.019,2.681c0.047,0.38,0.187,0.75,0.322,1.269c0.534-1.085,0.831-2.08,0.898-3.138
			c0.021-0.353,0.099-0.556,0.578-0.437c-0.122,0.701-0.226,1.414-0.375,2.117c-0.115,0.543-0.305,1.072-0.432,1.613
			c-0.093,0.4-0.328,0.548-0.722,0.548c-0.446-0.003-0.891,0.021-1.069-0.515c-0.091-0.274-0.163-0.557-0.255-0.878
			c-0.838,1.114-2.063,0.989-2.44-0.632c-0.418,0.621-1.033,0.894-1.713,0.846c-0.934-0.063-1.696-0.459-1.932-1.545
			c-0.43,0.651-0.846,1.252-1.228,1.873c-0.083,0.135-0.065,0.342-0.063,0.515c0.01,0.665,0.084,1.333,0.033,1.991
			c-0.038,0.5-0.656,0.951-1.123,0.949c-0.675-0.002-0.994-0.494-0.709-1.23c0.253-0.653,0.612-1.262,0.976-1.992
			c-0.254,0.091-0.433,0.156-0.613,0.221c-0.547,0.197-0.855,0.025-0.759-0.54c0.161-0.93,0.446-1.839,0.681-2.754
			c0.021-0.085,0.059-0.165,0.106-0.285c-0.209,0-0.371,0-0.476,0c-0.195,0.693-0.33,1.37-0.584,2.001
			c-0.288,0.721-0.655,0.887-1.416,0.828c-0.617-0.047-0.986-0.387-1.182-1.088c-0.019-0.07-0.024-0.144-0.042-0.249
			c-0.612,1.508-1.994,1.601-3.148,0.876c-0.567-0.354-0.97-1.701-0.768-2.453c0.085-0.318,0.213-0.625,0.338-0.932
			c0.263-0.645,0.929-0.727,1.588-0.492c0.646,0.23,0.949,0.826,0.73,1.487c-0.083,0.251-0.344,0.478-0.578,0.632
			c-0.206,0.135-0.487,0.153-0.831,0.25c0.119,0.361,0.169,0.744,0.356,1.043c0.401,0.645,1.341,0.443,1.673-0.398
			c0.201-0.508,0.218-1.086,0.343-1.626c0.061-0.261,0.126-0.552,0.286-0.752c0.241-0.296,0.723-0.211,0.869,0.171
			c0.191,0.498,0.296,1.031,0.416,1.553c0.063,0.271,0.056,0.56,0.128,0.828c0.037,0.136,0.193,0.354,0.265,0.342
			c0.181-0.029,0.448-0.133,0.495-0.27c0.172-0.489,0.288-1,0.375-1.512c0.024-0.146-0.119-0.322-0.188-0.483
			c-0.038-0.091-0.135-0.204-0.108-0.263c0.039-0.082,0.174-0.181,0.254-0.171c0.404,0.053,0.8,0.184,1.201,0.2
			C90.37,81.329,90.758,81.236,91.369,81.165z M98.542,83.213c-0.036-0.404-0.016-0.867-0.144-1.287
			c-0.063-0.202-0.392-0.336-0.621-0.464c-0.032-0.018-0.264,0.169-0.261,0.257c0.016,0.671,0.036,1.346,0.129,2.01
			c0.021,0.167,0.305,0.3,0.468,0.449c0.144-0.194,0.304-0.38,0.422-0.588C98.582,83.505,98.542,83.369,98.542,83.213z
			 M90.939,85.613c-0.319,0.563-0.613,1.018-0.839,1.505c-0.083,0.181-0.007,0.438-0.002,0.66c0.237-0.081,0.564-0.093,0.694-0.258
			C91.215,86.98,91.213,86.35,90.939,85.613z M93.77,81.896c0.075,0.071,0.15,0.142,0.228,0.212
			c0.258-0.189,0.646-0.332,0.732-0.582c0.075-0.215-0.197-0.549-0.313-0.831c-0.086,0.007-0.174,0.012-0.261,0.018
			C94.026,81.105,93.898,81.5,93.77,81.896z M83.58,82.041c0.062,0.051,0.123,0.102,0.182,0.153
			c0.273-0.269,0.617-0.501,0.781-0.823c0.063-0.123-0.286-0.455-0.447-0.692c-0.074,0.017-0.149,0.034-0.225,0.052
			C83.774,81.167,83.678,81.604,83.58,82.041z"/>
		<path fill-rule="evenodd" clip-rule="evenodd" fill="#282828" d="M25.538,58.392c-0.565-0.628-0.54-1.37-0.603-2.058
			c-0.076-0.848-0.313-1.538-1.055-2.047c-0.773-0.529-0.807-1.433-0.036-1.965c1.331-0.922,2.717-1.77,4.094-2.627
			c1.156-0.719,2.318-1.43,3.504-2.099c0.418-0.235,0.911-0.337,1.369-0.498c0.029,0.056,0.061,0.111,0.092,0.167
			c-0.378,0.828-0.764,1.654-1.13,2.488c-0.426,0.975-0.326,1.708,0.483,2.429c0.922,0.819,1.928,1.546,2.896,2.312
			c0.073,0.058,0.182,0.088,0.227,0.158c0.093,0.148,0.154,0.314,0.229,0.473c-0.172,0.053-0.352,0.168-0.512,0.147
			c-0.775-0.112-1.544-0.255-2.314-0.394c-1.136-0.204-2.267-0.447-3.41-0.611c-0.882-0.129-1.516,0.345-1.96,1.055
			c-0.555,0.885-1.065,1.797-1.599,2.696C25.75,58.129,25.66,58.227,25.538,58.392z"/>
		<path fill-rule="evenodd" clip-rule="evenodd" fill="#282828" d="M130.187,46.469c-0.257-0.225-0.432-0.379-0.61-0.531
			c-0.074,0.235-0.231,0.477-0.212,0.705c0.031,0.381,0.129,0.772,0.284,1.121c0.203,0.455,0.635,0.475,0.833,0.027
			c0.217-0.486,0.331-1.02,0.477-1.537c0.053-0.195,0.115-0.41,0.082-0.602c-0.029-0.183-0.15-0.367-0.275-0.513
			c-0.163-0.188-0.37-0.339-0.558-0.504c0.038-0.065,0.077-0.13,0.116-0.195c0.26,0.079,0.521,0.158,0.8,0.243
			c0.063-0.184,0.169-0.357,0.169-0.531c0.007-0.428,0.182-0.658,0.618-0.604c0.551,0.07,0.41,0.463,0.363,0.834
			c0.227,0.227,0.933,0.175,0.584,0.883c-0.219-0.124-0.394-0.223-0.571-0.326c-0.382,1.164-0.393,3.246,0.085,4.365
			c0.215-1.109,0.424-2.221,0.649-3.326c0.085-0.418,0.149-0.857,0.343-1.222c0.125-0.236,0.46-0.472,0.718-0.492
			c0.218-0.019,0.507,0.231,0.686,0.434c0.625,0.698,0.677,1.579,0.627,2.479c0.061,0.016,0.122,0.033,0.183,0.051
			c0.135-0.235,0.353-0.458,0.392-0.708c0.118-0.758,0.129-1.534,0.258-2.29c0.085-0.486,0.241-0.986,0.488-1.41
			c0.123-0.215,0.526-0.392,0.79-0.373c0.422,0.026,0.342,0.467,0.275,0.723c-0.166,0.625-0.409,1.23-0.614,1.847
			c-0.078,0.235-0.14,0.476-0.248,0.858c0.701-0.695,1.183-0.621,1.456,0.134c0.133,0.362,0.141,0.769,0.209,1.199
			c0.409-0.254,0.567-0.632,0.604-1.104c0.056-0.727,0.669-1.281,1.228-1.14c0.553,0.14,0.962,0.603,0.916,1.039
			c-0.058,0.548-0.35,0.786-1.099,0.87c0.025,0.068,0.061,0.127,0.064,0.188c0.021,0.393,0.203,0.763,0.591,0.727
			c0.259-0.024,0.589-0.328,0.707-0.588c0.18-0.393,0.439-0.86-0.052-1.282c-0.084-0.071-0.012-0.324,0.045-0.528
			c0.591,0.672,1.289,0.418,1.961,0.289c0.073,1.14,0.142,2.225,0.21,3.309c0.088,0.003,0.175,0.006,0.261,0.01
			c0.138-0.627,0.282-1.251,0.41-1.879c0.059-0.293,0.061-0.598,0.132-0.887c0.028-0.109,0.18-0.189,0.275-0.284
			c0.086,0.104,0.263,0.227,0.243,0.308c-0.24,1.104-0.49,2.207-0.79,3.296c-0.055,0.194-0.372,0.47-0.53,0.447
			c-0.251-0.036-0.589-0.239-0.686-0.461c-0.44-1.01-0.581-2.077-0.376-3.313c-0.152,0.114-0.292,0.166-0.324,0.256
			c-0.122,0.349-0.165,0.73-0.318,1.062c-0.443,0.95-1.756,1.104-2.486,0.327c-0.122-0.133-0.4-0.334-0.433-0.307
			c-0.25,0.227-0.743,0.139-0.785,0.658c-0.029,0.36-0.14,0.747-0.325,1.054c-0.143,0.232-0.457,0.49-0.698,0.495
			c-0.244,0.004-0.604-0.236-0.718-0.467c-0.258-0.529-0.396-1.115-0.59-1.701c-0.379,0.082-0.706,0.236-0.98,0.648
			c-0.5,0.75-1.122,0.668-1.831-0.17c-0.184,0.615-0.368,1.205-0.533,1.803c-0.103,0.363-0.281,0.76-0.663,0.686
			c-0.271-0.054-0.575-0.406-0.682-0.693c-0.192-0.51-0.246-1.07-0.358-1.621c-0.307,0.184-0.566,0.426-0.87,0.506
			c-0.631,0.166-1.259-0.195-1.552-0.847c-0.266-0.583-0.365-1.194-0.211-1.836c0.128-0.528,0.573-0.657,0.979-0.679
			c0.378-0.021,0.832-0.029,1.067,0.441C130.564,46.193,130.519,46.398,130.187,46.469z M137.039,46.943
			c0.126,0.617,0.229,1.119,0.331,1.621c0.065,0.007,0.127,0.015,0.19,0.021c0.115-0.308,0.229-0.615,0.325-0.881
			C137.61,47.456,137.381,47.25,137.039,46.943z M134.813,46.949c0.069-0.016,0.139-0.032,0.21-0.049
			c-0.112-0.479-0.226-0.959-0.367-1.574C134.21,46.063,134.433,46.522,134.813,46.949z M134.133,46.891
			c-0.073,0.037-0.147,0.075-0.223,0.113c0.173,0.329,0.346,0.658,0.518,0.986c0.152-0.102,0.305-0.203,0.374-0.249
			C134.538,47.404,134.335,47.147,134.133,46.891z"/>
		<path fill-rule="evenodd" clip-rule="evenodd" fill="#282828" d="M55.052,16.471c-0.225,0.389-0.352,0.687-0.547,0.928
			c-1.553,1.914-3.115,3.82-4.688,5.718c-0.293,0.356-0.61,0.724-0.993,0.968c-0.279,0.179-0.698,0.248-1.025,0.192
			c-0.134-0.022-0.263-0.505-0.266-0.78c-0.014-0.877-0.48-1.447-1.188-1.84c-1.368-0.764-2.868-1.133-4.393-1.418
			c-0.497-0.093-0.991-0.199-1.483-0.367C45.118,18.016,49.876,16.73,55.052,16.471z"/>
		<path fill-rule="evenodd" clip-rule="evenodd" fill="#282828" d="M113.095,81.385c0.23,0.725-0.177,1.122-0.498,1.546
			c-0.159,0.212-0.356,0.399-0.563,0.563c-0.311,0.248-0.364,0.557-0.393,0.939c-0.156,2.046-0.87,3.859-2.402,5.279
			c-0.332,0.306-0.773,0.583-1.223,0.302c-0.454-0.286-0.483-0.764-0.396-1.299c0.225-1.408,0.794-2.638,1.766-3.673
			c0.254-0.271,0.579-0.479,0.854-0.734c0.1-0.094,0.146-0.246,0.178-0.303c-0.46,0.127-0.962,0.428-1.361,0.329
			c-0.376-0.095-0.65-0.612-0.951-0.925c-0.263,0.104-0.635,0.248-1.063,0.418c-0.2,0.637-0.411,1.385-0.675,2.113
			c-0.129,0.356-0.351,0.652-0.828,0.628c-0.453-0.022-0.787-0.207-0.906-0.624c-0.269-0.943-0.525-1.893-0.714-2.854
			c-0.279-1.425-0.011-2.841,0.238-4.239c0.11-0.605,0.378-1.209,0.695-1.74c0.143-0.243,0.596-0.445,0.887-0.422
			c0.401,0.034,0.386,0.494,0.311,0.792c-0.186,0.735-0.354,1.493-0.673,2.174c-0.505,1.075-0.354,2.187-0.307,3.282
			c0.028,0.657,0.269,1.307,0.423,1.955c0.027,0.113,0.111,0.215,0.252,0.471c0.254-0.574,0.472-1.013,0.632-1.473
			c0.032-0.098-0.122-0.334-0.247-0.4c-0.55-0.289-0.78-0.792-0.938-1.336c-0.156-0.535,0.171-1.242,0.6-1.375
			c0.45-0.139,0.93,0.166,1.121,0.778c0.107,0.333,0.132,0.694,0.173,1.046c0.022,0.204,0.003,0.412,0.003,0.629
			c0.685-0.172,0.99-0.679,1.044-1.662c0.047-0.85,0.54-1.197,1.195-0.814c0.116,0.068,0.198,0.308,0.19,0.461
			c-0.025,0.584-0.124,1.164-0.129,1.746c-0.001,0.173,0.215,0.348,0.328,0.522c0.144-0.122,0.392-0.228,0.414-0.369
			c0.094-0.57,0.19-1.158,0.15-1.728c-0.043-0.586,0.349-0.703,0.703-0.705c0.359-0.004,0.719,0.176,0.681,0.705
			c-0.043,0.559-0.013,1.124-0.013,1.686c0.051,0.021,0.098,0.043,0.146,0.064C112.23,82.554,112.662,81.97,113.095,81.385z
			 M110.332,84.883c-1.199,1.1-1.963,2.245-2.211,3.686c-0.034,0.194,0.048,0.408,0.076,0.613c0.235-0.088,0.563-0.105,0.691-0.273
			C109.758,87.771,110.141,86.443,110.332,84.883z M106.438,82.98c0.057-0.02,0.111-0.039,0.166-0.06
			c-0.088-0.433-0.156-0.869-0.277-1.293c-0.035-0.126-0.22-0.21-0.335-0.312c-0.091,0.128-0.231,0.245-0.26,0.385
			C105.609,82.323,106.048,82.644,106.438,82.98z"/>
		<path fill-rule="evenodd" clip-rule="evenodd" fill="#282828" d="M33.676,67.096c-0.127-0.074-0.438-0.146-0.509-0.318
			c-0.126-0.308,0.004-0.577,0.355-0.779c1.048-0.602,2.093-1.223,3.094-1.902c1.262-0.86,2.351-1.92,3.276-3.143
			c0.338-0.449,0.689-0.889,1.061-1.311c0.688-0.789,1.912-0.82,2.649-0.088c0.066,0.066,0.125,0.146,0.203,0.199
			c1.017,0.699,1.097,1.102-0.011,2.206c-0.966,0.964-2.158,1.722-3.32,2.46c-1.865,1.189-3.922,1.971-6.059,2.539
			C34.219,67.012,34.015,67.035,33.676,67.096z"/>
		<path fill-rule="evenodd" clip-rule="evenodd" fill="#282828" d="M23.222,64.588c-0.049-0.742-0.078-1.397-0.138-2.05
			c-0.056-0.614-0.133-1.228-0.222-1.839c-0.227-1.512-0.505-3.018-0.68-4.535c-0.089-0.771-0.019-1.563,0.019-2.343
			c0.006-0.121,0.222-0.313,0.353-0.323c0.135-0.012,0.373,0.136,0.41,0.26c0.323,1.083,0.73,2.162,0.88,3.274
			c0.173,1.287,0.112,2.604,0.145,3.909c0.03,1.303,0.31,2.548,0.77,3.766c0.222,0.59,0.395,1.199,0.546,1.813
			c0.025,0.105-0.168,0.375-0.278,0.385c-0.271,0.027-0.559-0.02-0.826-0.095c-1.782-0.505-3.037-1.731-4.196-3.092
			c-0.724-0.85-1.316-1.77-1.547-2.874c-0.11-0.537-0.148-1.102,0.304-1.533c0.12-0.115,0.308-0.188,0.473-0.211
			c0.047-0.006,0.157,0.223,0.188,0.355c0.124,0.541,0.185,1.099,0.347,1.627c0.478,1.541,1.672,2.479,2.927,3.35
			C22.815,64.516,22.99,64.522,23.222,64.588z"/>
		<path fill-rule="evenodd" clip-rule="evenodd" fill="#282828" d="M33.2,69.512c-2.115-1.267-3.612-2.95-4.637-5.138
			c-0.08,0.493-0.19,0.984-0.229,1.48c-0.04,0.529-0.038,1.066,0,1.596c0.036,0.502,0.161,0.997,0.211,1.497
			c0.05,0.497,0.055,0.998,0.086,1.615c-0.695-0.4-0.769-0.961-0.847-1.477c-0.153-0.998-0.206-2.012-0.368-3.01
			c-0.229-1.402,0.04-2.766,0.296-4.123c0.088-0.462,0.366-0.896,0.606-1.314c0.085-0.146,0.318-0.287,0.476-0.278
			c0.115,0.007,0.251,0.251,0.309,0.413c0.055,0.152,0.021,0.338,0.021,0.508c0,2.576,1.15,4.562,3.15,6.1
			C32.944,67.896,33.335,68.52,33.2,69.512z"/>
		<path fill-rule="evenodd" clip-rule="evenodd" fill="#282828" d="M104.707,45.232c0.05-0.23,0.135-0.617,0.218-1.004
			c0.067-0.005,0.134-0.012,0.199-0.016c0.043,0.185,0.148,0.379,0.12,0.553c-0.084,0.512-0.185,1.027-0.353,1.518
			c-0.072,0.215-0.325,0.367-0.496,0.549c-0.126-0.184-0.293-0.353-0.37-0.555c-0.094-0.258-0.115-0.543-0.176-0.855
			c-0.157,0.432-0.202,1.04-0.903,0.592c-0.071,0.213-0.093,0.41-0.192,0.553c-0.135,0.188-0.328,0.334-0.497,0.498
			c-0.166-0.172-0.446-0.328-0.474-0.519c-0.108-0.813-0.144-1.64-0.211-2.543c-0.74-0.485-1.465,0.175-1.871,1.903
			c0.093,0.011,0.182,0.029,0.271,0.033c1.335,0.043,1.945,1.051,1.44,2.318c-0.25,0.621-0.712,0.763-1.301,0.749
			c-0.614-0.016-1.271-0.425-1.434-1.003c-0.318-1.151-0.166-2.252,0.463-3.285c0.574-0.938,1.597-1.632,2.503-1.378
			c0.274-0.181,0.491-0.323,0.766-0.507c0.068,0.21,0.08,0.28,0.112,0.34c0.066,0.121,0.145,0.234,0.217,0.351
			c0.089-0.104,0.21-0.194,0.254-0.315c0.124-0.344,0.299-0.57,0.832-0.398c-0.145,0.647-0.294,1.313-0.45,2.002
			c0.283-0.259,0.518-0.475,0.754-0.689C104.332,44.512,104.535,44.9,104.707,45.232z M101.055,47.387
			c0.033-0.021,0.068-0.043,0.103-0.064c-0.17-0.268-0.281-0.646-0.524-0.773c-0.235-0.122-0.623-0.03-0.903,0.071
			c-0.095,0.034-0.098,0.396-0.091,0.605c0.006,0.196,0.094,0.391,0.123,0.589c0.058,0.385,0.231,0.749,0.634,0.715
			c0.439-0.037,0.602-0.447,0.655-0.859C101.063,47.577,101.055,47.48,101.055,47.387z M102.875,44.039
			c-0.14-0.054-0.274-0.105-0.493-0.188c0,0.8,0,1.511,0,2.222c0.044,0.002,0.087,0.004,0.132,0.009
			C102.63,45.412,102.751,44.744,102.875,44.039z"/>
		<path fill-rule="evenodd" clip-rule="evenodd" fill="#282828" d="M80.138,82.85c-0.5-0.697-1.01-1.385-1.491-2.094
			c-0.532-0.785-0.362-1.893,0.359-2.557c0.565-0.521,1.683-0.662,2.313-0.178c0.385,0.293,0.545,1.239,0.241,1.574
			c-0.083,0.092-0.26,0.098-0.488,0.174c0.028-0.266,0.013-0.457,0.074-0.617c0.173-0.457-0.123-0.699-0.446-0.742
			c-0.245-0.033-0.709,0.158-0.751,0.329c-0.094,0.383-0.108,0.88,0.066,1.213c0.389,0.737,0.938,1.387,1.372,2.103
			c0.525,0.872,0.741,1.82,0.244,2.77c-0.553,1.061-2.359,1.379-3.18,0.681c-0.617-0.527-0.529-1.548-0.224-2.127
			c0.288-0.544,0.879-0.733,1.647-0.542c0.066,0.016,0.128,0.057,0.19,0.086C80.09,82.898,80.114,82.873,80.138,82.85z
			 M80.578,83.966c-0.066,0.003-0.128,0.007-0.194,0.011c-0.121-0.116-0.227-0.258-0.365-0.34c-0.254-0.146-0.625-0.426-0.768-0.342
			c-0.295,0.17-0.576,0.514-0.673,0.842c-0.135,0.45,0.011,0.907,0.529,1.106c0.396,0.151,0.808,0.183,1.054-0.226
			C80.353,84.699,80.442,84.318,80.578,83.966z"/>
		<path fill-rule="evenodd" clip-rule="evenodd" fill="#282828" d="M124.302,46.016c0.182-0.672,0.285-1.375,0.563-2.004
			c0.304-0.691,1.429-0.754,2.007-0.166c1.246,1.271,1.337,3.791,0.14,4.93c-0.59,0.563-1.45,0.458-1.931-0.215
			c-0.539-0.756-0.7-1.598-0.611-2.508C124.415,46.041,124.358,46.027,124.302,46.016z M125.696,44.684
			c0,0.832-0.05,1.668,0.021,2.494c0.031,0.355,0.271,0.721,0.499,1.021c0.187,0.248,0.473,0.225,0.632-0.093
			c0.512-1.013,0.633-2.061,0.203-3.126c-0.07-0.172-0.328-0.268-0.496-0.399c-0.085,0.251-0.188,0.497-0.241,0.753
			c-0.019,0.084,0.09,0.197,0.149,0.291c0.188,0.305,0.135,0.52-0.215,0.63C125.6,45.86,125.924,45.191,125.696,44.684z"/>
		<path fill-rule="evenodd" clip-rule="evenodd" fill="#282828" d="M121.749,60.001c0.436-0.815,0.807-1.508,1.211-2.261
			c-0.893-0.172-1.511-0.47-1.747-1.287c-0.282-0.973,0.276-2.08,1.188-2.287c1.093-0.25,1.957,0.359,2.157,1.477
			c0.303,1.688-0.481,2.875-1.722,3.865c-0.205,0.162-0.419,0.32-0.648,0.44C122.064,60.012,121.895,59.986,121.749,60.001z
			 M122.824,54.74c-0.76,0.104-1.096,0.441-1.125,1.104c-0.028,0.647,0.328,1.055,1.125,1.252
			C122.824,56.308,122.824,55.525,122.824,54.74z"/>
		<path fill-rule="evenodd" clip-rule="evenodd" fill="#282828" d="M118.702,43.725c0.069,0.744,0.128,1.484-0.5,1.998
			c0.267,0.6,0.563,1.156,0.762,1.746c0.227,0.674-0.109,1.406-0.781,1.618c-0.455,0.144-0.975,0.172-1.453,0.124
			c-0.526-0.053-0.969-0.785-0.792-1.285c0.229-0.652,0.547-1.274,0.871-2.005c-0.571-0.889-0.659-1.804-0.138-2.298
			c0.488-0.461,1.342-0.41,2.051,0.119L118.702,43.725z M117.315,46.496c-0.472,0.462-0.938,0.899-0.869,1.636
			c0.039,0.427,0.256,0.668,0.685,0.655c0.416-0.012,0.766-0.125,0.824-0.648C118.027,47.479,117.709,46.992,117.315,46.496z
			 M117.688,45.24c0.596-0.35,0.746-0.744,0.488-1.204c-0.067-0.122-0.254-0.255-0.378-0.246c-0.114,0.007-0.317,0.202-0.31,0.302
			C117.519,44.477,117.615,44.857,117.688,45.24z"/>
		<path fill-rule="evenodd" clip-rule="evenodd" fill="#282828" d="M113.334,48.45c0.473,0,0.942,0.021,1.409-0.012
			c0.16-0.012,0.307-0.159,0.458-0.243c-0.086-0.139-0.151-0.297-0.267-0.407c-0.1-0.095-0.256-0.138-0.386-0.204
			c0.048-0.086,0.095-0.171,0.142-0.258c0.217,0.024,0.547-0.029,0.627,0.088c0.198,0.287,0.372,0.654,0.372,0.99
			c0.003,0.197-0.314,0.498-0.546,0.572c-0.287,0.09-0.632-0.007-0.953-0.022c-0.375-0.019-0.757-0.083-1.128-0.047
			c-0.575,0.056-0.804-0.128-0.534-0.648c0.381-0.737,0.95-1.374,1.35-2.103c0.259-0.473,0.429-1.021,0.509-1.555
			c0.069-0.435-0.408-0.914-0.725-0.837c-0.482,0.117-0.55,0.493-0.53,0.929c0.008,0.177-0.078,0.357-0.12,0.537
			c-0.129-0.154-0.333-0.293-0.374-0.467c-0.24-1.072,0.563-1.66,1.499-1.503c1.185,0.2,1.673,1.094,1.209,2.306
			c-0.272,0.71-0.799,1.332-1.253,1.959c-0.22,0.304-0.543,0.531-0.817,0.793C113.297,48.361,113.315,48.406,113.334,48.45z"/>
		<path fill-rule="evenodd" clip-rule="evenodd" fill="#282828" d="M97.12,47.524c0.405-0.339,0.756-0.303,0.919,0.099
			c0.131,0.329,0.188,0.766,0.078,1.084c-0.062,0.174-0.535,0.27-0.83,0.285c-0.665,0.04-1.339,0.034-2.001-0.02
			c-0.108-0.01-0.314-0.419-0.257-0.547c0.242-0.556,0.554-1.082,0.864-1.605c0.311-0.524,0.686-1.014,0.966-1.554
			c0.22-0.429,0.12-0.898-0.198-1.251c-0.13-0.143-0.507-0.266-0.607-0.186c-0.209,0.162-0.325,0.457-0.442,0.714
			c-0.035,0.076,0.083,0.21,0.083,0.315c-0.001,0.121-0.058,0.24-0.09,0.36c-0.122-0.062-0.285-0.091-0.356-0.188
			c-0.288-0.387-0.102-1.376,0.503-1.638c1.091-0.471,2.273,0.196,2.231,1.388c-0.033,0.874-0.384,1.543-0.891,2.176
			c-0.391,0.485-0.822,0.934-1.234,1.396c0.743,0.242,1.567,0.133,1.906-0.299C97.57,47.894,97.372,47.732,97.12,47.524z"/>
		<path fill-rule="evenodd" clip-rule="evenodd" fill="#282828" d="M118.722,43.742c0.119-0.119,0.24-0.238,0.36-0.359
			c0.021,0.006,0.039,0.01,0.062,0.014c0.225-0.172,0.453-0.346,0.656-0.502c0.2,0.322,0.321,0.514,0.534,0.855
			c0.167-0.617,0.266-1.068,0.954-0.979c-0.061,0.354-0.107,0.699-0.183,1.035c-0.078,0.333-0.186,0.658-0.18,1.017
			c0.202-0.253,0.402-0.505,0.604-0.756c0.08,0.005,0.159,0.011,0.237,0.016c0.124,0.427,0.247,0.851,0.373,1.275
			c0.094-0.352,0.199-0.737,0.305-1.122c0.103,0.023,0.206,0.047,0.307,0.069c-0.089,0.548-0.126,1.114-0.285,1.642
			c-0.1,0.325-0.383,0.592-0.585,0.885c-0.164-0.288-0.35-0.568-0.482-0.868c-0.065-0.146-0.035-0.333-0.054-0.606
			c-0.103,0.313-0.111,0.617-0.26,0.711c-0.163,0.107-0.449,0.023-0.71,0.023c-0.052,0.198-0.075,0.451-0.187,0.654
			c-0.078,0.141-0.278,0.294-0.423,0.294c-0.146,0-0.38-0.157-0.42-0.291c-0.26-0.868-0.351-1.756-0.182-2.703
			c-0.128-0.089-0.294-0.204-0.461-0.319C118.702,43.725,118.722,43.742,118.722,43.742z M119.843,43.898c0,0.75,0,1.463,0,2.176
			c0.249-0.525,0.391-1.058,0.493-1.597C120.396,44.187,120.364,43.898,119.843,43.898z"/>
		<path fill-rule="evenodd" clip-rule="evenodd" fill="#282828" d="M86.738,80.057c-0.438,0.008-0.73-0.173-0.745-0.643
			c-0.015-0.41,0.381-0.813,0.771-0.826c0.357-0.01,0.801,0.383,0.792,0.701C87.542,79.683,87.152,80.049,86.738,80.057z"/>
		<path fill-rule="evenodd" clip-rule="evenodd" fill="#282828" d="M107.54,46.631c0.875,0.07,1.721-0.389,2.666,0.123
			C109.163,47.207,107.762,47.149,107.54,46.631z"/>
	</g>
</g>
</svg>
